<svg id="Capa_1" data-name="Capa 1" xmlns="http://www.w3.org/2000/svg" viewBox="0 0 97.16 97.16"><title>ss</title><path d="M48.58,0A48.58,48.58,0,1,0,97.16,48.58,48.63,48.63,0,0,0,48.58,0Zm0,86.82A38.24,38.24,0,1,1,86.82,48.58,38.28,38.28,0,0,1,48.58,86.82Z"/><path d="M67.28,47.08H52.07V27.93a4,4,0,0,0-8,0V51.08a4,4,0,0,0,4,4H67.28a4,4,0,0,0,0-8Z"/><rect x="44.26" y="7.29" width="7.32" height="11.23" rx="3.66"/><rect x="44.26" y="79.36" width="7.32" height="11.23" rx="3.66"/><rect x="8.89" y="45.27" width="7.32" height="11.23" rx="3.66" transform="translate(63.44 38.34) rotate(90)"/><rect x="81.02" y="45.27" width="7.32" height="11.23" rx="3.66" transform="translate(135.57 -33.79) rotate(90)"/></svg>