<svg id="Capa_1" data-name="Capa 1" xmlns="http://www.w3.org/2000/svg" viewBox="0 0 97.16 97.16"><title>ss</title><path d="M73.59,53.3a2.19,2.19,0,0,0-2.18-2.18H63.79a2.18,2.18,0,0,0-2.18,2.18v7.62a2.17,2.17,0,0,0,2.18,2.18h7.62a2.18,2.18,0,0,0,2.18-2.18Z"/><path d="M87.21,11V22.58a9.5,9.5,0,0,1-9.52,9.5h-6a9.55,9.55,0,0,1-9.58-9.5V10.9H35V22.58a9.55,9.55,0,0,1-9.58,9.5h-6a9.51,9.51,0,0,1-9.53-9.5V11a8.66,8.66,0,0,0-8.37,8.61V87.75a8.66,8.66,0,0,0,8.62,8.67H87a8.67,8.67,0,0,0,8.62-8.67V19.56A8.65,8.65,0,0,0,87.21,11ZM84.42,83.5a3.73,3.73,0,0,1-3.72,3.73H16.26a3.73,3.73,0,0,1-3.73-3.73V48.28a3.73,3.73,0,0,1,3.73-3.73H80.7a3.73,3.73,0,0,1,3.72,3.73V83.5Z"/><path d="M19.41,25.84h5.94a3.27,3.27,0,0,0,3.27-3.26V3.5A3.27,3.27,0,0,0,25.35.24H19.41A3.26,3.26,0,0,0,16.14,3.5V22.58A3.26,3.26,0,0,0,19.41,25.84Z"/><path d="M71.6,25.84h6a3.26,3.26,0,0,0,3.26-3.26V3.5A3.26,3.26,0,0,0,77.55.24h-6A3.26,3.26,0,0,0,68.34,3.5V22.58A3.26,3.26,0,0,0,71.6,25.84Z"/></svg>