<svg id="Capa_1" data-name="Capa 1" xmlns="http://www.w3.org/2000/svg" viewBox="0 0 36.57 36.57"><defs><style>.cls-1{fill:#fff;}</style></defs><title>ss</title><path class="cls-1" d="M18.29,1.13h0A17.53,17.53,0,0,0,.75,18.66h0A17.54,17.54,0,0,0,18.29,36.2h0A17.53,17.53,0,0,0,35.82,18.66h0A17.53,17.53,0,0,0,18.29,1.13ZM31.73,25.46A3.5,3.5,0,0,1,29.25,28c-2.19.59-11,.59-11,.59s-8.78,0-11-.59a3.5,3.5,0,0,1-2.48-2.5,36.77,36.77,0,0,1-.59-6.8,36.83,36.83,0,0,1,.59-6.8A3.51,3.51,0,0,1,7.32,9.37c2.19-.59,11-.59,11-.59s8.77,0,11,.59a3.51,3.51,0,0,1,2.48,2.49,36.83,36.83,0,0,1,.59,6.8A36.77,36.77,0,0,1,31.73,25.46Z"/><polygon class="cls-1" points="16.01 22.52 16.01 14.17 23.35 18.34 16.01 22.52"/></svg>