<svg id="Capa_1" data-name="Capa 1" xmlns="http://www.w3.org/2000/svg" viewBox="0 0 36.57 36.57"><defs><style>.cls-1{fill:none;stroke:#fff;stroke-miterlimit:10;stroke-width:1.5px;}.cls-2{fill:#fff;}</style></defs><title>ss</title><path class="cls-1" d="M18.22,35.77h0A17.53,17.53,0,0,1,.69,18.23h0A17.53,17.53,0,0,1,18.22.7h0A17.53,17.53,0,0,1,35.76,18.23h0A17.54,17.54,0,0,1,18.22,35.77Z"/><path class="cls-2" d="M18.22,10.35c2.57,0,2.87,0,3.89.06a5.25,5.25,0,0,1,1.78.33,2.92,2.92,0,0,1,1.11.72,3,3,0,0,1,.72,1.1,5.33,5.33,0,0,1,.33,1.79c.05,1,.06,1.32.06,3.88s0,2.88-.06,3.89a5.33,5.33,0,0,1-.33,1.79A3.09,3.09,0,0,1,25,25a2.92,2.92,0,0,1-1.11.72,5.25,5.25,0,0,1-1.78.33c-1,.05-1.32.06-3.89.06s-2.87,0-3.88-.06a5.33,5.33,0,0,1-1.79-.33,2.81,2.81,0,0,1-1.1-.72,3,3,0,0,1-.72-1.1,5.33,5.33,0,0,1-.33-1.79c-.05-1-.06-1.32-.06-3.89s0-2.87.06-3.88a5.33,5.33,0,0,1,.33-1.79,2.88,2.88,0,0,1,.72-1.1,2.81,2.81,0,0,1,1.1-.72,5.33,5.33,0,0,1,1.79-.33c1-.05,1.32-.06,3.88-.06m0-1.73c-2.61,0-2.94,0-4,.06a7.15,7.15,0,0,0-2.34.44,4.89,4.89,0,0,0-1.7,1.11,4.84,4.84,0,0,0-1.11,1.71,6.84,6.84,0,0,0-.44,2.33c-.05,1-.06,1.35-.06,4s0,2.94.06,4a6.84,6.84,0,0,0,.44,2.33,4.84,4.84,0,0,0,1.11,1.71,4.89,4.89,0,0,0,1.7,1.11,7.15,7.15,0,0,0,2.34.44c1,.05,1.35.06,4,.06s2.94,0,4-.06a7.09,7.09,0,0,0,2.33-.44,4.8,4.8,0,0,0,1.7-1.11,4.58,4.58,0,0,0,1.11-1.71,7.06,7.06,0,0,0,.45-2.33c0-1,.06-1.35.06-4s0-2.93-.06-4a7.06,7.06,0,0,0-.45-2.33,4.58,4.58,0,0,0-1.11-1.71,4.8,4.8,0,0,0-1.7-1.11,7.09,7.09,0,0,0-2.33-.44c-1,0-1.36-.06-4-.06"/><path class="cls-2" d="M18.22,13.3a4.94,4.94,0,1,0,4.94,4.93,4.93,4.93,0,0,0-4.94-4.93m0,8.14a3.21,3.21,0,1,1,3.21-3.21,3.21,3.21,0,0,1-3.21,3.21"/><path class="cls-2" d="M24.51,13.1A1.16,1.16,0,1,1,23.36,12a1.16,1.16,0,0,1,1.15,1.15"/></svg>