<svg id="Capa_1" data-name="Capa 1" xmlns="http://www.w3.org/2000/svg" viewBox="0 0 36.57 36.57"><defs><style>.cls-1{fill:none;stroke:#fff;stroke-miterlimit:10;stroke-width:1.5px;}.cls-2{fill:#fff;}</style></defs><title>ss</title><path class="cls-1" d="M18.35,35.83h0A17.54,17.54,0,0,1,.81,18.3h0A17.54,17.54,0,0,1,18.35.76h0A17.54,17.54,0,0,1,35.89,18.3h0A17.53,17.53,0,0,1,18.35,35.83Z"/><path class="cls-2" d="M9,24.17a10.9,10.9,0,0,0,16.77-9.68,7.69,7.69,0,0,0,1.91-2,7.63,7.63,0,0,1-2.2.61A3.9,3.9,0,0,0,27.18,11a7.83,7.83,0,0,1-2.44.94,3.83,3.83,0,0,0-6.53,3.49,10.86,10.86,0,0,1-7.9-4,3.84,3.84,0,0,0,1.18,5.12,3.89,3.89,0,0,1-1.73-.48,3.84,3.84,0,0,0,3.07,3.8,3.86,3.86,0,0,1-1.73.07,3.84,3.84,0,0,0,3.58,2.66A7.67,7.67,0,0,1,9,24.17Z"/></svg>