<svg id="Capa_1" data-name="Capa 1" xmlns="http://www.w3.org/2000/svg" viewBox="0 0 36.57 36.57"><defs><style>.cls-1{fill:none;stroke:#1a8dc6;stroke-miterlimit:10;stroke-width:1.5px;}.cls-2{fill:#1a8dc6;fill-rule:evenodd;}</style></defs><title>ss</title><path class="cls-1" d="M18.29,35.93h0A17.54,17.54,0,0,1,.75,18.39h0A17.53,17.53,0,0,1,18.29.86h0A17.53,17.53,0,0,1,35.82,18.39h0A17.53,17.53,0,0,1,18.29,35.93Z"/><path class="cls-2" d="M27.9,17.91A9.44,9.44,0,0,0,9,17.73c0,.14,0,.28,0,.41A9.3,9.3,0,0,0,10.37,23l-1.7,5,5.23-1.66a9.45,9.45,0,0,0,14-8.21A1.85,1.85,0,0,0,27.9,17.91ZM18.46,26a7.9,7.9,0,0,1-4.37-1.3l-3.05,1,1-2.92a7.82,7.82,0,0,1-1.51-4.63,6.45,6.45,0,0,1,0-.76,7.95,7.95,0,0,1,15.82.15c0,.2,0,.41,0,.61A7.91,7.91,0,0,1,18.46,26Z"/><path class="cls-2" d="M22.79,20c-.23-.12-1.37-.67-1.58-.75s-.37-.11-.52.12-.61.74-.74.89-.27.18-.5.06a6,6,0,0,1-1.86-1.14,6.79,6.79,0,0,1-1.29-1.59c-.13-.23,0-.35.1-.47s.23-.27.35-.4a.76.76,0,0,0,.08-.11,1.36,1.36,0,0,0,.15-.27A.42.42,0,0,0,17,16c-.06-.11-.52-1.24-.71-1.7s-.39-.38-.53-.38l-.44,0a.86.86,0,0,0-.62.28,2.59,2.59,0,0,0-.81,1.92,2.89,2.89,0,0,0,.12.78,5.44,5.44,0,0,0,.83,1.6,9.59,9.59,0,0,0,3.95,3.47c2.36.91,2.36.61,2.78.57a2.32,2.32,0,0,0,1.56-1.1,1.83,1.83,0,0,0,.14-1.09C23.17,20.21,23,20.15,22.79,20Z"/></svg>