<svg id="Capa_1" data-name="Capa 1" xmlns="http://www.w3.org/2000/svg" viewBox="0 0 35.07 35.07"><defs><style>.cls-1{fill:#222221;}.cls-2{fill:#fff;}</style></defs><title>ss</title><path class="cls-1" d="M17.62,35.06h0A17.53,17.53,0,0,1,.09,17.52h0A17.53,17.53,0,0,1,17.62,0h0A17.53,17.53,0,0,1,35.16,17.52h0A17.54,17.54,0,0,1,17.62,35.06Z"/><rect class="cls-2" x="9.67" y="13.61" width="3.63" height="11.72"/><path class="cls-2" d="M11.47,12.08A2.17,2.17,0,1,0,9.32,9.91,2.16,2.16,0,0,0,11.47,12.08Z"/><path class="cls-2" d="M19.1,19.18c0-1.64.76-2.63,2.21-2.63s2,.95,2,2.63v6.16H26.9V17.92c0-3.15-1.78-4.66-4.27-4.66a4.09,4.09,0,0,0-3.53,1.93V13.61H15.62V25.34H19.1Z"/></svg>