<svg id="Capa_1" data-name="Capa 1" xmlns="http://www.w3.org/2000/svg" viewBox="0 0 36.57 36.57"><defs><style>.cls-1{fill:#fff;}</style></defs><title>ss</title><path class="cls-1" d="M19,18.53c-.2-.45-.41-.89-.63-1.34a31.19,31.19,0,0,1-9.27,1.24c0,.08,0,.15,0,.23a9.19,9.19,0,0,0,2.14,5.9A14.37,14.37,0,0,1,19,18.53Z"/><path class="cls-1" d="M14.12,10.43a9.31,9.31,0,0,0-4.8,6.05,29.75,29.75,0,0,0,8.09-1A41.19,41.19,0,0,0,14.12,10.43Z"/><path class="cls-1" d="M12.62,25.94a9.21,9.21,0,0,0,5.67,2,9.11,9.11,0,0,0,3.31-.63,36.39,36.39,0,0,0-1.9-6.94A12.51,12.51,0,0,0,12.62,25.94Z"/><path class="cls-1" d="M20.16,16.51c.26.52.49,1,.72,1.57a19.94,19.94,0,0,1,6.62.06,9.18,9.18,0,0,0-2.17-5.43A13.19,13.19,0,0,1,20.16,16.51Z"/><path class="cls-1" d="M18.29,1.13A17.53,17.53,0,0,0,.75,18.66h0a17.54,17.54,0,1,0,35.07,0h0A17.53,17.53,0,0,0,18.29,1.13Zm0,28.71A11.18,11.18,0,1,1,29.47,18.66,11.17,11.17,0,0,1,18.29,29.84Z"/><path class="cls-1" d="M23.92,11.36a9.15,9.15,0,0,0-5.63-1.93A9.41,9.41,0,0,0,16,9.72a43,43,0,0,1,3.25,5.07A11.41,11.41,0,0,0,23.92,11.36Z"/><path class="cls-1" d="M21.62,19.92a37.76,37.76,0,0,1,1.79,6.42,9.24,9.24,0,0,0,4-6.24A18.39,18.39,0,0,0,21.62,19.92Z"/></svg>