<svg id="Capa_1" data-name="Capa 1" xmlns="http://www.w3.org/2000/svg" viewBox="0 0 36.57 36.57"><defs><style>.cls-1{fill:#fff;}</style></defs><title>ss</title><path class="cls-1" d="M18.32,1.13A17.53,17.53,0,0,0,.79,18.66h0a17.54,17.54,0,1,0,35.07,0h0A17.53,17.53,0,0,0,18.32,1.13ZM13.57,26.28a7.62,7.62,0,1,1,5.34-13l-1.57,1.35a5.55,5.55,0,1,0-3.77,9.63,4.67,4.67,0,0,0,4.64-4H13.44v-2h7.08l0,.78C20.53,23.2,17.61,26.28,13.57,26.28ZM30.7,20.16H27.77v2.92H25.91V20.16H23V18.29h2.93V15.37h1.86v2.92H30.7Z"/></svg>