<svg id="Capa_1" data-name="Capa 1" xmlns="http://www.w3.org/2000/svg" viewBox="0 0 36.57 36.57"><defs><style>.cls-1{fill:#fff;}</style></defs><title>ss</title><path class="cls-1" d="M18.46,10.54a7.92,7.92,0,0,0-7.9,7.11,6.51,6.51,0,0,0,0,.77A7.81,7.81,0,0,0,12,23L11,26l3.05-1A7.94,7.94,0,0,0,26.4,18.42c0-.21,0-.41,0-.62A7.93,7.93,0,0,0,18.46,10.54Zm4.63,11.13a2.31,2.31,0,0,1-1.56,1.09c-.42,0-.42.34-2.78-.57a9.59,9.59,0,0,1-3.95-3.47A5.48,5.48,0,0,1,14,17.13a3,3,0,0,1-.12-.79,2.59,2.59,0,0,1,.81-1.92.86.86,0,0,1,.62-.28l.44,0c.14,0,.34-.08.53.38s.65,1.59.71,1.71a.4.4,0,0,1,0,.4,1.36,1.36,0,0,1-.15.27.76.76,0,0,1-.08.11,5,5,0,0,1-.35.4c-.11.12-.23.24-.1.47a6.59,6.59,0,0,0,1.29,1.59,6,6,0,0,0,1.86,1.14c.23.12.36.1.5-.06s.58-.66.73-.89.31-.2.53-.12,1.35.63,1.58.75.38.17.44.26A1.87,1.87,0,0,1,23.09,21.67Z"/><path class="cls-1" d="M18.29,1.13A17.53,17.53,0,0,0,.75,18.66h0a17.54,17.54,0,1,0,35.07,0h0A17.53,17.53,0,0,0,18.29,1.13Zm.17,26.66a9.37,9.37,0,0,1-4.56-1.17L8.67,28.29l1.7-5A9.29,9.29,0,0,1,9,18.42c0-.14,0-.28,0-.41a9.44,9.44,0,0,1,18.87.17,1.93,1.93,0,0,1,0,.24A9.41,9.41,0,0,1,18.46,27.79Z"/></svg>