<svg id="Capa_1" data-name="Capa 1" xmlns="http://www.w3.org/2000/svg" viewBox="0 0 36.57 36.57"><defs><style>.cls-1{fill:#595959;}</style></defs><title>ss</title><path class="cls-1" d="M18.19,4.59A13.93,13.93,0,1,0,32.12,18.52,13.93,13.93,0,0,0,18.19,4.59Zm0,2.42a11.42,11.42,0,0,1,7,2.41,14.11,14.11,0,0,1-5.79,4.27,53.46,53.46,0,0,0-4.05-6.31A11.48,11.48,0,0,1,18.19,7ZM13,8.26a50.92,50.92,0,0,1,4.11,6.25A36.67,36.67,0,0,1,7,15.79,11.53,11.53,0,0,1,13,8.26ZM6.69,18.52c0-.1,0-.2,0-.3a39.23,39.23,0,0,0,11.55-1.53c.27.55.53,1.1.78,1.66a17.91,17.91,0,0,0-9.68,7.52A11.45,11.45,0,0,1,6.69,18.52ZM18.19,30a11.4,11.4,0,0,1-7.06-2.45,15.69,15.69,0,0,1,8.82-7,45,45,0,0,1,2.37,8.66A11.53,11.53,0,0,1,18.19,30Zm6.39-2a47.24,47.24,0,0,0-2.23-8,23,23,0,0,1,7.2.23A11.53,11.53,0,0,1,24.58,28.08Zm-3.16-10.3c-.28-.65-.57-1.3-.89-2A16.4,16.4,0,0,0,27,11.1a11.46,11.46,0,0,1,2.7,6.77A24.93,24.93,0,0,0,21.42,17.78Z"/></svg>