<svg id="Capa_1" data-name="Capa 1" xmlns="http://www.w3.org/2000/svg" viewBox="0 0 36.57 36.57"><defs><style>.cls-1{fill:#595959;}.cls-2{fill:#fff;}</style></defs><title>ss</title><path class="cls-1" d="M35,10A4.39,4.39,0,0,0,32,6.93C29.22,6.2,18.29,6.2,18.29,6.2s-10.94,0-13.67.73A4.41,4.41,0,0,0,1.53,10,46.24,46.24,0,0,0,.8,18.52,46.1,46.1,0,0,0,1.53,27,4.38,4.38,0,0,0,4.62,30.1c2.73.74,13.67.74,13.67.74s10.93,0,13.66-.74A4.36,4.36,0,0,0,35,27a46.1,46.1,0,0,0,.73-8.47A46.24,46.24,0,0,0,35,10Z"/><polygon class="cls-2" points="14.71 23.72 14.71 13.32 23.85 18.52 14.71 23.72"/></svg>