<svg id="Capa_1" data-name="Capa 1" xmlns="http://www.w3.org/2000/svg" viewBox="0 0 36.57 36.57"><defs><style>.cls-1{fill:none;stroke:#fff;stroke-miterlimit:10;stroke-width:1.5px;}.cls-2{fill:#fff;}</style></defs><title>ss</title><path class="cls-1" d="M18.29,35.83h0A17.53,17.53,0,0,1,.75,18.3h0A17.54,17.54,0,0,1,18.29.76h0A17.53,17.53,0,0,1,35.82,18.3h0A17.53,17.53,0,0,1,18.29,35.83Z"/><path class="cls-2" d="M31.73,11.5A3.52,3.52,0,0,0,29.25,9c-2.19-.59-11-.59-11-.59s-8.78,0-11,.59a3.52,3.52,0,0,0-2.48,2.5,36.77,36.77,0,0,0-.59,6.8,36.77,36.77,0,0,0,.59,6.8,3.54,3.54,0,0,0,2.48,2.5c2.19.59,11,.59,11,.59s8.77,0,11-.59a3.54,3.54,0,0,0,2.48-2.5,36.77,36.77,0,0,0,.59-6.8A36.77,36.77,0,0,0,31.73,11.5Z"/><polygon class="cls-2" points="15.42 22.47 15.42 14.13 22.75 18.3 15.42 22.47"/></svg>