<svg id="Capa_1" data-name="Capa 1" xmlns="http://www.w3.org/2000/svg" viewBox="0 0 35.07 35.07"><defs><style>.cls-1{fill:#fff;}</style></defs><title>ss</title><path class="cls-1" d="M17.54,7.46c3.2,0,3.57,0,4.84.07a6.61,6.61,0,0,1,2.22.41,3.75,3.75,0,0,1,1.38.9,3.8,3.8,0,0,1,.9,1.37,6.74,6.74,0,0,1,.41,2.23c.06,1.26.07,1.64.07,4.84s0,3.58-.07,4.84a6.68,6.68,0,0,1-.41,2.23,3.75,3.75,0,0,1-.9,1.38,3.86,3.86,0,0,1-1.38.89,6.36,6.36,0,0,1-2.22.41c-1.27.06-1.64.07-4.84.07S14,27.09,12.7,27a6.43,6.43,0,0,1-2.23-.41,3.86,3.86,0,0,1-1.38-.89,3.61,3.61,0,0,1-.89-1.38,6.61,6.61,0,0,1-.42-2.23c0-1.26-.07-1.64-.07-4.84s0-3.58.07-4.84a6.67,6.67,0,0,1,.42-2.23,3.65,3.65,0,0,1,.89-1.37,3.75,3.75,0,0,1,1.38-.9,6.68,6.68,0,0,1,2.23-.41c1.26-.06,1.64-.07,4.84-.07m0-2.16c-3.26,0-3.67,0-4.94.07a8.71,8.71,0,0,0-2.91.56A5.79,5.79,0,0,0,7.57,7.31,6,6,0,0,0,6.18,9.43a9.11,9.11,0,0,0-.55,2.91c-.06,1.28-.07,1.69-.07,4.94s0,3.66.07,4.94a9,9,0,0,0,.55,2.91,5.82,5.82,0,0,0,1.39,2.12,5.67,5.67,0,0,0,2.12,1.38,8.71,8.71,0,0,0,2.91.56c1.27.06,1.68.07,4.94.07s3.66,0,4.94-.07a8.7,8.7,0,0,0,2.9-.56,5.78,5.78,0,0,0,2.13-1.38,5.92,5.92,0,0,0,1.38-2.12,9,9,0,0,0,.56-2.91c.05-1.28.07-1.68.07-4.94s0-3.66-.07-4.94a9.08,9.08,0,0,0-.56-2.91,6.1,6.1,0,0,0-1.38-2.12,5.91,5.91,0,0,0-2.13-1.38,8.7,8.7,0,0,0-2.9-.56c-1.28-.06-1.69-.07-4.94-.07"/><path class="cls-1" d="M17.54,11.13a6.15,6.15,0,1,0,6.15,6.15,6.15,6.15,0,0,0-6.15-6.15m0,10.15a4,4,0,1,1,4-4,4,4,0,0,1-4,4"/><path class="cls-1" d="M25.37,10.89a1.44,1.44,0,1,1-1.44-1.44,1.43,1.43,0,0,1,1.44,1.44"/></svg>