<svg id="Capa_1" data-name="Capa 1" xmlns="http://www.w3.org/2000/svg" viewBox="0 0 35.07 35.07"><defs><style>.cls-1{fill:#fff;}</style></defs><title>ss</title><path class="cls-1" d="M34.29,8.81A4.36,4.36,0,0,0,31.2,5.7C28.47,5,17.54,5,17.54,5S6.6,5,3.87,5.7A4.38,4.38,0,0,0,.78,8.81a46.1,46.1,0,0,0-.73,8.47,46.1,46.1,0,0,0,.73,8.47,4.41,4.41,0,0,0,3.09,3.12c2.73.73,13.67.73,13.67.73s10.93,0,13.66-.73a4.39,4.39,0,0,0,3.09-3.12A46.1,46.1,0,0,0,35,17.28,46.1,46.1,0,0,0,34.29,8.81Z"/><polygon class="cls-1" points="13.96 22.48 13.96 12.08 23.1 17.28 13.96 22.48"/></svg>