<svg id="Capa_1" data-name="Capa 1" xmlns="http://www.w3.org/2000/svg" viewBox="0 0 36.57 36.57"><defs><style>.cls-1{fill:#1a8dc6;}.cls-2{fill:#fff;}</style></defs><title>ss</title><path class="cls-1" d="M35,9.48A4.39,4.39,0,0,0,32,6.36c-2.73-.73-13.66-.73-13.66-.73s-10.94,0-13.67.73A4.41,4.41,0,0,0,1.53,9.48,46.1,46.1,0,0,0,.8,18a46.1,46.1,0,0,0,.73,8.47,4.38,4.38,0,0,0,3.09,3.11c2.73.74,13.67.74,13.67.74s10.93,0,13.66-.74A4.36,4.36,0,0,0,35,26.42,46.1,46.1,0,0,0,35.77,18,46.1,46.1,0,0,0,35,9.48Z"/><polygon class="cls-2" points="14.71 23.15 14.71 12.75 23.85 17.95 14.71 23.15"/></svg>