<svg id="Capa_1" data-name="Capa 1" xmlns="http://www.w3.org/2000/svg" viewBox="0 0 35.07 35.07"><defs><style>.cls-1{fill:#1a8dc6;}.cls-2{fill:#fff;}</style></defs><title>ss</title><rect class="cls-1" x="0.11" y="-0.04" width="35.07" height="35.07" rx="17.54"/><path class="cls-2" d="M31.1,10.69A3.54,3.54,0,0,0,28.61,8.2c-2.19-.59-11-.59-11-.59s-8.78,0-11,.59A3.51,3.51,0,0,0,4.2,10.69a36.83,36.83,0,0,0-.59,6.8,36.77,36.77,0,0,0,.59,6.8,3.5,3.5,0,0,0,2.48,2.5c2.19.59,11,.59,11,.59s8.77,0,11-.59a3.53,3.53,0,0,0,2.49-2.5,37.39,37.39,0,0,0,.58-6.8A37.45,37.45,0,0,0,31.1,10.69Z"/><polygon class="cls-1" points="14.78 21.67 14.78 13.32 22.11 17.49 14.78 21.67"/></svg>