<svg id="Capa_1" data-name="Capa 1" xmlns="http://www.w3.org/2000/svg" viewBox="0 0 36.57 36.57"><defs><style>.cls-1{fill:none;stroke:#1a8dc6;stroke-miterlimit:10;stroke-width:1.5px;}.cls-2{fill:#1a8dc6;}</style></defs><title>ss</title><rect class="cls-1" x="0.75" y="0.86" width="35.07" height="35.07" rx="17.54"/><path class="cls-2" d="M18.29,7.21A11.18,11.18,0,1,0,29.47,18.39,11.18,11.18,0,0,0,18.29,7.21Zm0,2a9.15,9.15,0,0,1,5.63,1.93,11.41,11.41,0,0,1-4.65,3.43A43,43,0,0,0,16,9.45,9.41,9.41,0,0,1,18.29,9.16Zm-4.17,1a42.5,42.5,0,0,1,3.3,5,30.29,30.29,0,0,1-8.1,1A9.29,9.29,0,0,1,14.12,10.16ZM9.05,18.39c0-.08,0-.16,0-.24a30.89,30.89,0,0,0,9.27-1.23c.22.44.43.89.63,1.34a14.37,14.37,0,0,0-7.77,6A9.19,9.19,0,0,1,9.05,18.39Zm9.24,9.24a9.21,9.21,0,0,1-5.67-2,12.57,12.57,0,0,1,7.08-5.62,36.69,36.69,0,0,1,1.9,7A9.11,9.11,0,0,1,18.29,27.63Zm5.12-1.56a37.87,37.87,0,0,0-1.79-6.43,18.71,18.71,0,0,1,5.78.19A9.26,9.26,0,0,1,23.41,26.07ZM20.88,17.8c-.23-.52-.46-1-.72-1.56a13.19,13.19,0,0,0,5.17-3.8,9.18,9.18,0,0,1,2.17,5.43A20.22,20.22,0,0,0,20.88,17.8Z"/></svg>