<svg id="Capa_1" data-name="Capa 1" xmlns="http://www.w3.org/2000/svg" viewBox="0 0 36.57 36.57"><defs><style>.cls-1{fill:#595959;fill-rule:evenodd;}</style></defs><title>ss</title><path class="cls-1" d="M31,17.91A11.77,11.77,0,0,0,7.5,17.7c0,.17,0,.34,0,.51a11.56,11.56,0,0,0,1.68,6L7.05,30.51l6.52-2.08A11.77,11.77,0,0,0,31,18.21ZM19.25,28a9.87,9.87,0,0,1-5.44-1.63L10,27.61,11.24,24a9.75,9.75,0,0,1-1.88-5.76c0-.32,0-.64.05-.95a9.9,9.9,0,0,1,19.71.18c0,.26,0,.51,0,.77A9.87,9.87,0,0,1,19.25,28Z"/><path class="cls-1" d="M24.65,20.57c-.29-.15-1.71-.84-2-.93s-.46-.15-.65.14-.75.93-.92,1.12-.34.21-.63.07a7.9,7.9,0,0,1-2.32-1.42,8.8,8.8,0,0,1-1.6-2c-.17-.29,0-.44.13-.58s.28-.34.43-.51l.11-.13.18-.34a.54.54,0,0,0,0-.51c-.08-.14-.65-1.55-.9-2.12s-.48-.48-.65-.48l-.55,0a1.09,1.09,0,0,0-.77.35,3.23,3.23,0,0,0-1,2.39,3.52,3.52,0,0,0,.15,1,6.35,6.35,0,0,0,1,2,11.9,11.9,0,0,0,4.93,4.33c2.93,1.14,2.93.76,3.46.71a2.92,2.92,0,0,0,2-1.36,2.4,2.4,0,0,0,.17-1.36C25.13,20.78,24.93,20.71,24.65,20.57Z"/></svg>