<svg id="Capa_1" data-name="Capa 1" xmlns="http://www.w3.org/2000/svg" viewBox="0 0 35.07 35.07"><defs><style>.cls-1{fill:#fff;}</style></defs><title>ss</title><path class="cls-1" d="M17.44,3.35A13.93,13.93,0,1,0,31.37,17.28,13.93,13.93,0,0,0,17.44,3.35Zm0,2.42a11.48,11.48,0,0,1,7,2.41,14.11,14.11,0,0,1-5.79,4.27,53.46,53.46,0,0,0-4.05-6.31A11.48,11.48,0,0,1,17.44,5.77ZM12.25,7a50.82,50.82,0,0,1,4.11,6.24A37,37,0,0,1,6.28,14.56,11.53,11.53,0,0,1,12.25,7ZM5.94,17.28c0-.1,0-.2,0-.3A38.57,38.57,0,0,0,17.5,15.45c.27.55.53,1.1.78,1.66A18,18,0,0,0,8.6,24.63,11.43,11.43,0,0,1,5.94,17.28Zm11.5,11.51a11.46,11.46,0,0,1-7.06-2.44,15.67,15.67,0,0,1,8.82-7A45,45,0,0,1,21.57,28,11.32,11.32,0,0,1,17.44,28.79Zm6.39-1.94a47.61,47.61,0,0,0-2.23-8,23,23,0,0,1,7.2.23A11.55,11.55,0,0,1,23.83,26.85Zm-3.16-10.3c-.28-.66-.57-1.31-.89-2a16.41,16.41,0,0,0,6.44-4.74,11.46,11.46,0,0,1,2.7,6.77A24.91,24.91,0,0,0,20.67,16.55Z"/></svg>