<svg id="Capa_1" data-name="Capa 1" xmlns="http://www.w3.org/2000/svg" viewBox="0 0 36.57 36.57"><defs><style>.cls-1{fill:#fff;}</style></defs><title>ss</title><path class="cls-1" d="M18.29,1.13A17.53,17.53,0,0,0,.75,18.66h0a17.54,17.54,0,1,0,35.07,0h0A17.53,17.53,0,0,0,18.29,1.13Zm7.43,13.72A10.9,10.9,0,0,1,8.94,24.53,7.72,7.72,0,0,0,14.62,23,3.82,3.82,0,0,1,11,20.28a3.72,3.72,0,0,0,1.73-.06,3.84,3.84,0,0,1-3.08-3.81,3.8,3.8,0,0,0,1.74.48,3.84,3.84,0,0,1-1.19-5.12,10.9,10.9,0,0,0,7.91,4,3.84,3.84,0,0,1,6.53-3.5,7.61,7.61,0,0,0,2.43-.93,3.78,3.78,0,0,1-1.68,2.12,7.79,7.79,0,0,0,2.2-.6A7.65,7.65,0,0,1,25.72,14.85Z"/></svg>