<svg id="Capa_1" data-name="Capa 1" xmlns="http://www.w3.org/2000/svg" viewBox="0 0 35.07 35.07"><defs><style>.cls-1{fill:#595959;}.cls-2{fill:#fff;}</style></defs><title>ss</title><path class="cls-1" d="M17.54,35.07h0A17.53,17.53,0,0,1,0,17.54H0A17.54,17.54,0,0,1,17.54,0h0A17.53,17.53,0,0,1,35.07,17.54h0A17.53,17.53,0,0,1,17.54,35.07Z"/><rect class="cls-2" x="9.58" y="13.63" width="3.63" height="11.72"/><path class="cls-2" d="M11.38,12.09A2.17,2.17,0,1,0,9.24,9.93,2.16,2.16,0,0,0,11.38,12.09Z"/><path class="cls-2" d="M19,19.2c0-1.65.75-2.63,2.21-2.63s2,.94,2,2.63v6.15h3.61V17.93c0-3.14-1.78-4.66-4.26-4.66A4.07,4.07,0,0,0,19,15.21V13.63H15.53V25.35H19Z"/></svg>