<svg id="Capa_1" data-name="Capa 1" xmlns="http://www.w3.org/2000/svg" viewBox="0 0 35.07 35.07"><defs><style>.cls-1{fill:#1a8dc6;}.cls-2{fill:#fff;}</style></defs><title>ss</title><path class="cls-1" d="M17.68,35.16h0A17.54,17.54,0,0,1,.14,17.62h0A17.53,17.53,0,0,1,17.68.09h0A17.54,17.54,0,0,1,35.22,17.62h0A17.54,17.54,0,0,1,17.68,35.16Z"/><path class="cls-2" d="M17.68,9.74c2.57,0,2.87,0,3.88,0a5.26,5.26,0,0,1,1.79.34A3.14,3.14,0,0,1,25.17,12a5.26,5.26,0,0,1,.34,1.79c0,1,0,1.31,0,3.88s0,2.87,0,3.89a5.24,5.24,0,0,1-.34,1.78,3,3,0,0,1-.71,1.11,3.18,3.18,0,0,1-1.11.72,5.33,5.33,0,0,1-1.79.33c-1,0-1.31.05-3.88.05s-2.87,0-3.89-.05A5.31,5.31,0,0,1,12,25.12a3.17,3.17,0,0,1-1.83-1.83,5.58,5.58,0,0,1-.33-1.78c0-1,0-1.32,0-3.89s0-2.87,0-3.88A5.6,5.6,0,0,1,10.18,12a3,3,0,0,1,.72-1.1A2.92,2.92,0,0,1,12,10.13a5.24,5.24,0,0,1,1.78-.34c1,0,1.32,0,3.89,0m0-1.73c-2.61,0-2.94,0-4,.05a7.06,7.06,0,0,0-2.33.45,4.8,4.8,0,0,0-1.7,1.11,4.55,4.55,0,0,0-1.11,1.7,7.07,7.07,0,0,0-.45,2.34c0,1-.06,1.35-.06,4s0,2.94.06,4a7.06,7.06,0,0,0,.45,2.33,4.94,4.94,0,0,0,2.81,2.81,7.06,7.06,0,0,0,2.33.45c1,.05,1.36.06,4,.06s2.94,0,4-.06A7.07,7.07,0,0,0,24,26.73a4.55,4.55,0,0,0,1.7-1.11,4.8,4.8,0,0,0,1.11-1.7,7.06,7.06,0,0,0,.45-2.33c0-1,.05-1.36.05-4s0-2.94-.05-4a7.07,7.07,0,0,0-.45-2.34A4.94,4.94,0,0,0,24,8.51a7.07,7.07,0,0,0-2.34-.45c-1,0-1.35-.05-4-.05"/><path class="cls-2" d="M17.68,12.68a4.94,4.94,0,1,0,4.94,4.94,4.94,4.94,0,0,0-4.94-4.94m0,8.15a3.21,3.21,0,1,1,3.2-3.21,3.21,3.21,0,0,1-3.2,3.21"/><path class="cls-2" d="M24,12.49a1.16,1.16,0,1,1-1.16-1.16A1.15,1.15,0,0,1,24,12.49"/></svg>