<svg id="Capa_1" data-name="Capa 1" xmlns="http://www.w3.org/2000/svg" viewBox="0 0 36.57 36.57"><defs><style>.cls-1{fill:none;stroke:#fff;stroke-miterlimit:10;stroke-width:1.5px;}.cls-2{fill:#fff;}</style></defs><title>ss</title><rect class="cls-1" x="0.75" y="0.76" width="35.07" height="35.07" rx="17.54"/><path class="cls-2" d="M20.48,17.84H13.39v2h4.78a4.7,4.7,0,0,1-4.65,4,5.56,5.56,0,1,1,3.78-9.64l1.57-1.35a7.62,7.62,0,1,0-5.35,13.05c4,0,7-3.08,7-7.29Z"/><polygon class="cls-2" points="30.66 17.93 27.74 17.93 27.74 15 25.87 15 25.87 17.93 22.95 17.93 22.95 19.79 25.87 19.79 25.87 22.72 27.74 22.72 27.74 19.79 30.66 19.79 30.66 17.93"/></svg>