<svg id="Capa_1" data-name="Capa 1" xmlns="http://www.w3.org/2000/svg" viewBox="0 0 35.07 35.07"><defs><style>.cls-1{fill:#222221;}.cls-2{fill:#fff;}</style></defs><title>ss</title><path class="cls-1" d="M17.49,35.06h0A17.54,17.54,0,0,1,0,17.52H0A17.53,17.53,0,0,1,17.49,0h0A17.53,17.53,0,0,1,35,17.52h0A17.53,17.53,0,0,1,17.49,35.06Z"/><path class="cls-2" d="M8.14,23.39a10.9,10.9,0,0,0,16.78-9.68,7.65,7.65,0,0,0,1.91-2,7.79,7.79,0,0,1-2.2.6,3.78,3.78,0,0,0,1.68-2.12,7.61,7.61,0,0,1-2.43.93,3.84,3.84,0,0,0-6.53,3.5,10.87,10.87,0,0,1-7.9-4,3.83,3.83,0,0,0,1.18,5.12,3.8,3.8,0,0,1-1.74-.48A3.85,3.85,0,0,0,12,19.08a3.72,3.72,0,0,1-1.73.06,3.85,3.85,0,0,0,3.58,2.67A7.72,7.72,0,0,1,8.14,23.39Z"/></svg>