<svg id="Capa_1" data-name="Capa 1" xmlns="http://www.w3.org/2000/svg" viewBox="0 0 36.57 36.57"><defs><style>.cls-1{fill:#222221;fill-rule:evenodd;}</style></defs><title>ss</title><path class="cls-1" d="M31,17.68A11.77,11.77,0,0,0,7.5,17.47c0,.17,0,.34,0,.51a11.56,11.56,0,0,0,1.68,6L7.05,30.27l6.52-2.07A11.77,11.77,0,0,0,31,18ZM19.25,27.8a9.87,9.87,0,0,1-5.44-1.63L10,27.38l1.23-3.65A9.7,9.7,0,0,1,9.36,18c0-.32,0-.64.05-1a9.9,9.9,0,0,1,19.71.19c0,.26,0,.51,0,.77A9.87,9.87,0,0,1,19.25,27.8Z"/><path class="cls-1" d="M24.65,20.34c-.29-.15-1.71-.84-2-.94s-.46-.14-.65.15-.75.93-.92,1.12-.34.21-.63.07a8.15,8.15,0,0,1-2.32-1.42,8.8,8.8,0,0,1-1.6-2c-.17-.29,0-.44.13-.59s.28-.33.43-.5l.11-.13.18-.35a.52.52,0,0,0,0-.5c-.08-.14-.65-1.55-.9-2.12s-.48-.48-.65-.48-.35,0-.55,0a1.11,1.11,0,0,0-.77.36,3.23,3.23,0,0,0-1,2.39,3.64,3.64,0,0,0,.15,1,6.35,6.35,0,0,0,1,2,11.9,11.9,0,0,0,4.93,4.33c2.93,1.14,2.93.76,3.46.71A2.92,2.92,0,0,0,25,22a2.4,2.4,0,0,0,.17-1.36C25.13,20.55,24.93,20.48,24.65,20.34Z"/></svg>