<svg id="Capa_1" data-name="Capa 1" xmlns="http://www.w3.org/2000/svg" viewBox="0 0 35.07 35.07"><defs><style>.cls-1{fill:#1a8dc6;}.cls-2{fill:#fff;}</style></defs><title>ss</title><path class="cls-1" d="M17.68,35h0A17.54,17.54,0,0,1,.14,17.49h0A17.53,17.53,0,0,1,17.68,0h0A17.54,17.54,0,0,1,35.22,17.49h0A17.54,17.54,0,0,1,17.68,35Z"/><rect class="cls-2" x="9.73" y="13.58" width="3.63" height="11.72"/><path class="cls-2" d="M11.52,12.05A2.17,2.17,0,1,0,9.38,9.89,2.16,2.16,0,0,0,11.52,12.05Z"/><path class="cls-2" d="M19.16,19.15c0-1.64.76-2.63,2.21-2.63s2,.95,2,2.63v6.16H27V17.89c0-3.14-1.78-4.66-4.27-4.66a4.07,4.07,0,0,0-3.53,1.93V13.58H15.68V25.31h3.48Z"/></svg>