<svg id="Capa_1" data-name="Capa 1" xmlns="http://www.w3.org/2000/svg" viewBox="0 0 35.07 35.07"><defs><style>.cls-1{fill:#595959;}.cls-2{fill:#fff;}</style></defs><title>ss</title><path class="cls-1" d="M17.49,35.07h0A17.53,17.53,0,0,1,0,17.54H0A17.54,17.54,0,0,1,17.49,0h0A17.53,17.53,0,0,1,35,17.54h0A17.53,17.53,0,0,1,17.49,35.07Z"/><path class="cls-2" d="M8.14,23.41a10.91,10.91,0,0,0,16.78-9.69,7.65,7.65,0,0,0,1.91-2,7.47,7.47,0,0,1-2.2.6,3.78,3.78,0,0,0,1.68-2.12,7.61,7.61,0,0,1-2.43.93,3.84,3.84,0,0,0-6.53,3.5,10.87,10.87,0,0,1-7.9-4,3.83,3.83,0,0,0,1.18,5.12,3.8,3.8,0,0,1-1.74-.48A3.85,3.85,0,0,0,12,19.09a3.86,3.86,0,0,1-1.73.07,3.84,3.84,0,0,0,3.58,2.66A7.72,7.72,0,0,1,8.14,23.41Z"/></svg>