<svg id="Capa_1" data-name="Capa 1" xmlns="http://www.w3.org/2000/svg" viewBox="0 0 35.07 35.07"><defs><style>.cls-1{fill:#595959;}.cls-2{fill:#fff;}</style></defs><title>ss</title><path class="cls-1" d="M17.57,35.07h0A17.53,17.53,0,0,1,0,17.54H0A17.53,17.53,0,0,1,17.57,0h0A17.54,17.54,0,0,1,35.11,17.54h0A17.53,17.53,0,0,1,17.57,35.07Z"/><path class="cls-2" d="M19.76,17.08H12.68v2h4.77a4.67,4.67,0,0,1-4.64,4,5.56,5.56,0,1,1,3.77-9.63l1.57-1.35a7.62,7.62,0,1,0-5.34,13.05c4,0,7-3.09,7-7.29Z"/><polygon class="cls-2" points="29.95 17.16 27.02 17.16 27.02 14.24 25.16 14.24 25.16 17.16 22.23 17.16 22.23 19.03 25.16 19.03 25.16 21.95 27.02 21.95 27.02 19.03 29.95 19.03 29.95 17.16"/></svg>