<svg id="Capa_1" data-name="Capa 1" xmlns="http://www.w3.org/2000/svg" viewBox="0 0 36.57 36.57"><defs><style>.cls-1{fill:#fff;}</style></defs><title>ss</title><path class="cls-1" d="M18.29,1.13A17.53,17.53,0,0,0,.75,18.66h0a17.54,17.54,0,1,0,35.07,0h0A17.53,17.53,0,0,0,18.29,1.13ZM14,26.48H10.33V14.76H14ZM12.13,13.22a2.17,2.17,0,1,1,2.15-2.16A2.15,2.15,0,0,1,12.13,13.22ZM27.56,26.48H24V20.33c0-1.69-.64-2.64-2-2.64s-2.21,1-2.21,2.64v6.15H16.28V14.76h3.49v1.57A4.07,4.07,0,0,1,23.3,14.4c2.48,0,4.26,1.52,4.26,4.66Z"/></svg>