<svg id="Capa_1" data-name="Capa 1" xmlns="http://www.w3.org/2000/svg" viewBox="0 0 35.07 35.07"><defs><style>.cls-1{fill:#222221;}.cls-2{fill:#fff;fill-rule:evenodd;}</style></defs><title>ss</title><rect class="cls-1" y="-0.01" width="35.07" height="35.07" rx="17.54"/><path class="cls-2" d="M27.15,17a9.44,9.44,0,0,0-18.87-.18c0,.14,0,.28,0,.42a9.29,9.29,0,0,0,1.35,4.84l-1.7,5,5.23-1.66a9.45,9.45,0,0,0,14-8.2A1.93,1.93,0,0,0,27.15,17Zm-9.44,8.11a7.9,7.9,0,0,1-4.37-1.3l-3.05,1,1-2.92a7.81,7.81,0,0,1-1.51-4.62,6.51,6.51,0,0,1,0-.77,7.95,7.95,0,0,1,15.82.15c0,.2,0,.41,0,.62A7.91,7.91,0,0,1,17.71,25.15Z"/><path class="cls-2" d="M22,19.17c-.23-.12-1.37-.67-1.58-.75s-.37-.11-.53.12-.6.74-.73.89-.27.18-.5.06a6,6,0,0,1-1.86-1.14,6.79,6.79,0,0,1-1.29-1.59c-.13-.23,0-.35.1-.47s.23-.27.35-.4a.76.76,0,0,0,.08-.11,1.36,1.36,0,0,0,.15-.27.42.42,0,0,0,0-.41c-.06-.11-.52-1.24-.71-1.7S15.11,13,15,13l-.44,0a.86.86,0,0,0-.62.28,2.59,2.59,0,0,0-.81,1.92,2.89,2.89,0,0,0,.12.78,5.44,5.44,0,0,0,.83,1.6A9.59,9.59,0,0,0,18,21.05c2.36.91,2.36.61,2.78.57a2.34,2.34,0,0,0,1.56-1.09,1.87,1.87,0,0,0,.14-1.1C22.42,19.34,22.27,19.28,22,19.17Z"/></svg>