<svg id="Capa_1" data-name="Capa 1" xmlns="http://www.w3.org/2000/svg" viewBox="0 0 36.57 36.57"><defs><style>.cls-1{fill:#222221;}.cls-2{fill:#fff;}</style></defs><title>ss</title><path class="cls-1" d="M35,11A4.38,4.38,0,0,0,32,7.84C29.22,7.1,18.29,7.1,18.29,7.1s-10.94,0-13.67.74A4.39,4.39,0,0,0,1.53,11,46.15,46.15,0,0,0,.8,19.42a46.24,46.24,0,0,0,.73,8.48A4.41,4.41,0,0,0,4.62,31c2.73.73,13.67.73,13.67.73S29.22,31.74,32,31A4.39,4.39,0,0,0,35,27.9a46.24,46.24,0,0,0,.73-8.48A46.15,46.15,0,0,0,35,11Z"/><polygon class="cls-2" points="14.71 24.62 14.71 14.22 23.85 19.42 14.71 24.62"/></svg>