<svg id="Capa_1" data-name="Capa 1" xmlns="http://www.w3.org/2000/svg" viewBox="0 0 35.07 35.07"><defs><style>.cls-1{fill:#1a8dc6;}.cls-2{fill:#fff;}</style></defs><title>ss</title><path class="cls-1" d="M17.53,35.16h0A17.53,17.53,0,0,1,0,17.62H0A17.53,17.53,0,0,1,17.53.09h0A17.53,17.53,0,0,1,35.07,17.62h0A17.54,17.54,0,0,1,17.53,35.16Z"/><path class="cls-2" d="M19.72,17.16H12.64v2h4.78a4.7,4.7,0,0,1-4.65,4,5.56,5.56,0,1,1,3.78-9.63l1.56-1.35a7.62,7.62,0,1,0-5.34,13c4,0,7-3.08,7-7.29Z"/><polygon class="cls-2" points="29.91 17.25 26.98 17.25 26.98 14.32 25.12 14.32 25.12 17.25 22.19 17.25 22.19 19.11 25.12 19.11 25.12 22.04 26.98 22.04 26.98 19.11 29.91 19.11 29.91 17.25"/></svg>