<svg id="Capa_1" data-name="Capa 1" xmlns="http://www.w3.org/2000/svg" viewBox="0 0 36.57 36.57"><defs><style>.cls-1{fill:none;stroke:#fff;stroke-miterlimit:10;stroke-width:1.5px;}.cls-2{fill:#fff;fill-rule:evenodd;}</style></defs><title>ss</title><path class="cls-1" d="M18.29,35.83h0A17.53,17.53,0,0,1,.75,18.3h0A17.54,17.54,0,0,1,18.29.76h0A17.53,17.53,0,0,1,35.82,18.3h0A17.53,17.53,0,0,1,18.29,35.83Z"/><path class="cls-2" d="M27.9,17.81A9.44,9.44,0,0,0,9,17.64c0,.14,0,.27,0,.41a9.27,9.27,0,0,0,1.35,4.84l-1.7,5,5.23-1.66a9.47,9.47,0,0,0,14-8.21A1.93,1.93,0,0,0,27.9,17.81Zm-9.44,8.12a8,8,0,0,1-4.37-1.3L11,25.6l1-2.93a7.79,7.79,0,0,1-1.51-4.62,6.34,6.34,0,0,1,0-.76,7.95,7.95,0,0,1,15.82.15c0,.2,0,.4,0,.61A7.91,7.91,0,0,1,18.46,25.93Z"/><path class="cls-2" d="M22.79,19.94c-.23-.11-1.37-.67-1.58-.74s-.37-.12-.52.11-.61.75-.74.9-.27.17-.5.06a6.48,6.48,0,0,1-1.86-1.14,6.79,6.79,0,0,1-1.29-1.59.34.34,0,0,1,.1-.47c.11-.11.23-.27.35-.4l.08-.11a1.84,1.84,0,0,0,.15-.28.4.4,0,0,0,0-.4c-.06-.12-.52-1.25-.71-1.71s-.39-.38-.53-.38l-.44,0a.88.88,0,0,0-.62.29A2.59,2.59,0,0,0,13.85,16a3,3,0,0,0,.12.78,5.19,5.19,0,0,0,.83,1.59,9.52,9.52,0,0,0,3.95,3.47c2.36.92,2.36.61,2.78.57a2.27,2.27,0,0,0,1.56-1.09,1.83,1.83,0,0,0,.14-1.09C23.17,20.12,23,20.06,22.79,19.94Z"/></svg>