<svg id="Capa_1" data-name="Capa 1" xmlns="http://www.w3.org/2000/svg" viewBox="0 0 36.57 36.57"><defs><style>.cls-1{fill:#595959;}</style></defs><title>ss</title><path class="cls-1" d="M18.29,8.69c3.2,0,3.57,0,4.84.07a6.54,6.54,0,0,1,2.22.42,3.61,3.61,0,0,1,1.38.89,3.75,3.75,0,0,1,.9,1.38A6.68,6.68,0,0,1,28,13.68c.06,1.26.07,1.64.07,4.84s0,3.58-.07,4.84a6.61,6.61,0,0,1-.41,2.22,4,4,0,0,1-2.28,2.28,6.61,6.61,0,0,1-2.22.41c-1.27.06-1.64.07-4.84.07s-3.58,0-4.84-.07a6.68,6.68,0,0,1-2.23-.41A3.75,3.75,0,0,1,9.84,27,3.61,3.61,0,0,1,9,25.58a6.54,6.54,0,0,1-.42-2.22c0-1.26-.07-1.64-.07-4.84s0-3.58.07-4.84A6.61,6.61,0,0,1,9,11.45a3.89,3.89,0,0,1,2.27-2.27,6.61,6.61,0,0,1,2.23-.42c1.26,0,1.64-.07,4.84-.07m0-2.15c-3.26,0-3.67,0-4.94.07a8.71,8.71,0,0,0-2.91.56A5.67,5.67,0,0,0,8.32,8.55a5.82,5.82,0,0,0-1.39,2.12,9,9,0,0,0-.55,2.91c-.06,1.28-.07,1.68-.07,4.94s0,3.66.07,4.94a9.11,9.11,0,0,0,.55,2.91,6,6,0,0,0,1.39,2.12,5.92,5.92,0,0,0,2.12,1.38,8.71,8.71,0,0,0,2.91.56c1.27.06,1.68.07,4.94.07s3.66,0,4.94-.07a8.7,8.7,0,0,0,2.9-.56,6.09,6.09,0,0,0,3.51-3.5,9.08,9.08,0,0,0,.56-2.91c.05-1.28.07-1.69.07-4.94s0-3.66-.07-4.94a9,9,0,0,0-.56-2.91,5.92,5.92,0,0,0-1.38-2.12,5.78,5.78,0,0,0-2.13-1.38,8.7,8.7,0,0,0-2.9-.56c-1.28-.06-1.69-.07-4.94-.07"/><path class="cls-1" d="M18.29,12.37a6.15,6.15,0,1,0,6.15,6.15,6.15,6.15,0,0,0-6.15-6.15m0,10.14a4,4,0,1,1,4-4,4,4,0,0,1-4,4"/><path class="cls-1" d="M26.12,12.12a1.44,1.44,0,1,1-1.44-1.44,1.43,1.43,0,0,1,1.44,1.44"/></svg>