<svg id="Capa_1" data-name="Capa 1" xmlns="http://www.w3.org/2000/svg" viewBox="0 0 35.07 35.07"><defs><style>.cls-1{fill:#1a8dc6;}.cls-2{fill:#fff;fill-rule:evenodd;}</style></defs><title>ss</title><rect class="cls-1" x="0.16" y="0.09" width="35.07" height="35.07" rx="17.54"/><path class="cls-2" d="M27.31,17.13A9.45,9.45,0,0,0,8.43,17v.41a9.3,9.3,0,0,0,1.35,4.85l-1.7,5,5.23-1.66a9.45,9.45,0,0,0,14-8.21Zm-9.44,8.12A7.9,7.9,0,0,1,13.5,24l-3.05,1,1-2.93a7.79,7.79,0,0,1-1.51-4.62,6.45,6.45,0,0,1,0-.76,7.94,7.94,0,0,1,15.81.15c0,.2,0,.41,0,.61A7.91,7.91,0,0,1,17.87,25.25Z"/><path class="cls-2" d="M22.2,19.27c-.24-.12-1.37-.68-1.58-.75s-.37-.12-.53.11-.6.75-.73.9-.27.17-.5.06A6.37,6.37,0,0,1,17,18.45a6.94,6.94,0,0,1-1.28-1.59c-.14-.23,0-.35.1-.47s.23-.27.35-.4l.08-.11a1.36,1.36,0,0,0,.15-.27.42.42,0,0,0,0-.41c-.06-.11-.52-1.24-.72-1.7s-.38-.38-.52-.38-.28,0-.44,0a.87.87,0,0,0-.62.29,2.59,2.59,0,0,0-.81,1.92,2.89,2.89,0,0,0,.12.78,5.19,5.19,0,0,0,.83,1.59,9.51,9.51,0,0,0,3.95,3.48c2.36.91,2.36.61,2.78.57a2.32,2.32,0,0,0,1.56-1.1,1.83,1.83,0,0,0,.14-1.09C22.58,19.44,22.43,19.38,22.2,19.27Z"/></svg>