<svg id="Capa_1" data-name="Capa 1" xmlns="http://www.w3.org/2000/svg" viewBox="0 0 36.57 36.57"><defs><style>.cls-1{fill:#1a8dc6;fill-rule:evenodd;}</style></defs><title>ss</title><path class="cls-1" d="M31,17.34A11.77,11.77,0,0,0,7.5,17.13c0,.17,0,.34,0,.51a11.56,11.56,0,0,0,1.68,6L7.05,29.94l6.52-2.07A11.79,11.79,0,0,0,31,17.64ZM19.25,27.46a9.87,9.87,0,0,1-5.44-1.63L10,27l1.23-3.64a9.75,9.75,0,0,1-1.88-5.76c0-.32,0-.64.05-.95a9.9,9.9,0,0,1,19.71.18c0,.26,0,.51,0,.77A9.87,9.87,0,0,1,19.25,27.46Z"/><path class="cls-1" d="M24.65,20c-.29-.14-1.71-.84-2-.93s-.46-.15-.65.14-.75.93-.92,1.12-.34.21-.63.07A7.9,7.9,0,0,1,18.16,19a8.8,8.8,0,0,1-1.6-2c-.17-.29,0-.44.13-.58s.28-.34.43-.5a1.71,1.71,0,0,1,.11-.14l.18-.34a.51.51,0,0,0,0-.5c-.08-.15-.65-1.56-.9-2.13s-.48-.48-.65-.48l-.55,0a1.07,1.07,0,0,0-.77.36,3.21,3.21,0,0,0-1,2.39,3.51,3.51,0,0,0,.15,1,6.35,6.35,0,0,0,1,2,11.9,11.9,0,0,0,4.93,4.33c2.93,1.14,2.93.76,3.46.71a2.88,2.88,0,0,0,2-1.36,2.4,2.4,0,0,0,.17-1.36C25.13,20.21,24.93,20.14,24.65,20Z"/></svg>