<svg id="Capa_1" data-name="Capa 1" xmlns="http://www.w3.org/2000/svg" viewBox="0 0 36.57 36.57"><defs><style>.cls-1{fill:#1a8dc6;}</style></defs><title>ss</title><path class="cls-1" d="M18.19,4A13.93,13.93,0,1,0,32.12,18,13.93,13.93,0,0,0,18.19,4Zm0,2.42a11.48,11.48,0,0,1,7,2.41,14.11,14.11,0,0,1-5.79,4.27,53.46,53.46,0,0,0-4.05-6.31A11.48,11.48,0,0,1,18.19,6.44ZM13,7.69a51.7,51.7,0,0,1,4.11,6.25A36.67,36.67,0,0,1,7,15.22,11.55,11.55,0,0,1,13,7.69ZM6.69,18c0-.1,0-.2,0-.3a38.9,38.9,0,0,0,11.55-1.53c.27.55.53,1.1.78,1.66A18,18,0,0,0,9.35,25.3,11.45,11.45,0,0,1,6.69,18Zm11.5,11.51A11.46,11.46,0,0,1,11.13,27,15.67,15.67,0,0,1,20,20a45,45,0,0,1,2.37,8.66A11.53,11.53,0,0,1,18.19,29.46Zm6.39-1.95a47.24,47.24,0,0,0-2.23-8,23,23,0,0,1,7.2.23A11.53,11.53,0,0,1,24.58,27.51ZM21.42,17.22c-.28-.66-.57-1.31-.89-1.95A16.51,16.51,0,0,0,27,10.53a11.46,11.46,0,0,1,2.7,6.77A24.65,24.65,0,0,0,21.42,17.22Z"/></svg>