<svg id="Capa_1" data-name="Capa 1" xmlns="http://www.w3.org/2000/svg" viewBox="0 0 35.07 35.07"><defs><style>.cls-1{fill:#595959;}.cls-2{fill:#fff;}</style></defs><title>ss</title><rect class="cls-1" width="35.07" height="35.07" rx="17.54"/><path class="cls-2" d="M31,10.74a3.5,3.5,0,0,0-2.48-2.5c-2.19-.59-11-.59-11-.59s-8.78,0-11,.59a3.5,3.5,0,0,0-2.48,2.5,36.77,36.77,0,0,0-.59,6.8,36.83,36.83,0,0,0,.59,6.8,3.51,3.51,0,0,0,2.48,2.49c2.19.59,11,.59,11,.59s8.77,0,11-.59A3.51,3.51,0,0,0,31,24.34a36.83,36.83,0,0,0,.59-6.8A36.77,36.77,0,0,0,31,10.74Z"/><polygon class="cls-1" points="14.67 21.71 14.67 13.36 22 17.54 14.67 21.71"/></svg>