<svg id="Capa_1" data-name="Capa 1" xmlns="http://www.w3.org/2000/svg" viewBox="0 0 36.57 36.57"><defs><style>.cls-1{fill:#fff;}</style></defs><title>ss</title><path class="cls-1" d="M18.29,15.46a3.21,3.21,0,1,0,3.2,3.2A3.21,3.21,0,0,0,18.29,15.46Z"/><path class="cls-1" d="M25.78,13A3.22,3.22,0,0,0,24,11.17a5.33,5.33,0,0,0-1.79-.33c-1-.05-1.32-.06-3.88-.06s-2.88,0-3.89.06a5.19,5.19,0,0,0-1.78.33A3.19,3.19,0,0,0,10.79,13a5.33,5.33,0,0,0-.33,1.79c-.05,1-.06,1.32-.06,3.88s0,2.88.06,3.89a5.19,5.19,0,0,0,.33,1.78,3,3,0,0,0,.72,1.11,2.92,2.92,0,0,0,1.11.72,5.19,5.19,0,0,0,1.78.33c1,.05,1.32.06,3.89.06s2.87,0,3.88-.06A5.33,5.33,0,0,0,24,26.16a2.81,2.81,0,0,0,1.1-.72,2.92,2.92,0,0,0,.72-1.11,5.19,5.19,0,0,0,.33-1.78c.05-1,.06-1.32.06-3.89s0-2.87-.06-3.88A5.33,5.33,0,0,0,25.78,13ZM18.29,23.6a4.94,4.94,0,1,1,4.93-4.94A4.94,4.94,0,0,1,18.29,23.6Zm5.13-8.91a1.16,1.16,0,1,1,1.15-1.16A1.15,1.15,0,0,1,23.42,14.69Z"/><path class="cls-1" d="M18.29,1.13A17.53,17.53,0,0,0,.75,18.66h0a17.54,17.54,0,1,0,35.07,0h0A17.53,17.53,0,0,0,18.29,1.13Zm9.55,21.5A7.09,7.09,0,0,1,27.4,25a4.93,4.93,0,0,1-1.11,1.71,4.68,4.68,0,0,1-1.71,1.1,7.06,7.06,0,0,1-2.33.45c-1,.05-1.35.06-4,.06s-2.94,0-4-.06A7.06,7.06,0,0,1,12,27.77,4.86,4.86,0,0,1,9.18,25a7.06,7.06,0,0,1-.45-2.33c-.05-1-.06-1.35-.06-4s0-2.93.06-4a7.06,7.06,0,0,1,.45-2.33,4.58,4.58,0,0,1,1.11-1.71A4.8,4.8,0,0,1,12,9.55a7.09,7.09,0,0,1,2.33-.44c1,0,1.36-.06,4-.06s2.94,0,4,.06a7.09,7.09,0,0,1,2.33.44,4.9,4.9,0,0,1,2.82,2.82,7.09,7.09,0,0,1,.44,2.33c.05,1,.06,1.35.06,4S27.89,21.6,27.84,22.63Z"/></svg>