<svg id="Capa_1" data-name="Capa 1" xmlns="http://www.w3.org/2000/svg" viewBox="0 0 35.07 35.07"><defs><style>.cls-1{fill:#1a8dc6;}.cls-2{fill:#fff;}</style></defs><title>ss</title><path class="cls-1" d="M17.46,35.16h0A17.53,17.53,0,0,1-.07,17.62h0A17.53,17.53,0,0,1,17.46.09h0A17.53,17.53,0,0,1,35,17.62h0A17.54,17.54,0,0,1,17.46,35.16Z"/><path class="cls-2" d="M17.46,6.44A11.18,11.18,0,1,0,28.64,17.62,11.18,11.18,0,0,0,17.46,6.44Zm0,2a9.15,9.15,0,0,1,5.63,1.93,11.4,11.4,0,0,1-4.64,3.43A43,43,0,0,0,15.2,8.68,9.33,9.33,0,0,1,17.46,8.39Zm-4.16,1a41.09,41.09,0,0,1,3.29,5,29.37,29.37,0,0,1-8.09,1A9.29,9.29,0,0,1,13.3,9.39ZM8.23,17.62c0-.08,0-.16,0-.24a30.89,30.89,0,0,0,9.27-1.23c.22.44.43.89.62,1.34a14.38,14.38,0,0,0-7.76,6A9.16,9.16,0,0,1,8.23,17.62Zm9.23,9.24a9.18,9.18,0,0,1-5.66-2,12.55,12.55,0,0,1,7.07-5.62,36.72,36.72,0,0,1,1.91,7A9.16,9.16,0,0,1,17.46,26.86Zm5.13-1.56a38.82,38.82,0,0,0-1.79-6.43,18.71,18.71,0,0,1,5.78.19A9.26,9.26,0,0,1,22.59,25.3ZM20.06,17q-.35-.78-.72-1.56a13.26,13.26,0,0,0,5.17-3.8,9.11,9.11,0,0,1,2.16,5.43A20.16,20.16,0,0,0,20.06,17Z"/></svg>