<svg id="Capa_1" data-name="Capa 1" xmlns="http://www.w3.org/2000/svg" viewBox="0 0 36.57 36.57"><defs><style>.cls-1{fill:#222221;}</style></defs><title>ss</title><path class="cls-1" d="M6.64,26.67A13.6,13.6,0,0,0,27.55,14.6a9.64,9.64,0,0,0,2.38-2.47,9.76,9.76,0,0,1-2.74.75,4.84,4.84,0,0,0,2.1-2.64,10,10,0,0,1-3,1.16,4.78,4.78,0,0,0-8.14,4.35,13.51,13.51,0,0,1-9.84-5,4.78,4.78,0,0,0,1.47,6.38,4.66,4.66,0,0,1-2.16-.6,4.78,4.78,0,0,0,3.83,4.75,4.88,4.88,0,0,1-2.16.08,4.8,4.8,0,0,0,4.47,3.32A9.68,9.68,0,0,1,6.64,26.67Z"/></svg>