<svg id="Capa_1" data-name="Capa 1" xmlns="http://www.w3.org/2000/svg" viewBox="0 0 36.57 36.57"><defs><style>.cls-1{fill:none;stroke:#595959;stroke-miterlimit:10;stroke-width:1.5px;}.cls-2{fill:#595959;}</style></defs><title>ss</title><path class="cls-1" d="M18.29,35.71h0A17.54,17.54,0,0,1,.75,18.17h0A17.53,17.53,0,0,1,18.29.64h0A17.53,17.53,0,0,1,35.82,18.17h0A17.53,17.53,0,0,1,18.29,35.71Z"/><path class="cls-2" d="M8.94,24.05a10.91,10.91,0,0,0,16.78-9.69,7.65,7.65,0,0,0,1.91-2,7.79,7.79,0,0,1-2.2.6,3.78,3.78,0,0,0,1.68-2.12,7.61,7.61,0,0,1-2.43.93,3.84,3.84,0,0,0-6.53,3.5,10.9,10.9,0,0,1-7.91-4,3.84,3.84,0,0,0,1.19,5.12,3.8,3.8,0,0,1-1.74-.48,3.84,3.84,0,0,0,3.08,3.81A3.86,3.86,0,0,1,11,19.8a3.83,3.83,0,0,0,3.58,2.66A7.72,7.72,0,0,1,8.94,24.05Z"/></svg>