<svg id="Capa_1" data-name="Capa 1" xmlns="http://www.w3.org/2000/svg" viewBox="0 0 36.57 36.57"><defs><style>.cls-1{fill:none;stroke:#1a8dc6;stroke-miterlimit:10;stroke-width:1.5px;}.cls-2{fill:#1a8dc6;}</style></defs><title>ss</title><rect class="cls-1" x="0.75" y="0.86" width="35.07" height="35.07" rx="17.54"/><path class="cls-2" d="M20.48,17.94H13.39v2h4.78a4.69,4.69,0,0,1-4.65,4,5.56,5.56,0,1,1,3.78-9.63L18.88,13a7.62,7.62,0,1,0-5.35,13c4,0,7-3.08,7-7.29Z"/><polygon class="cls-2" points="30.66 18.02 27.74 18.02 27.74 15.1 25.87 15.1 25.87 18.02 22.95 18.02 22.95 19.89 25.87 19.89 25.87 22.81 27.74 22.81 27.74 19.89 30.66 19.89 30.66 18.02"/></svg>