<svg id="Capa_1" data-name="Capa 1" xmlns="http://www.w3.org/2000/svg" viewBox="0 0 36.57 36.57"><defs><style>.cls-1{fill:none;stroke:#595959;stroke-miterlimit:10;stroke-width:1.5px;}.cls-2{fill:#595959;fill-rule:evenodd;}</style></defs><title>ss</title><path class="cls-1" d="M18.29,35.71h0A17.54,17.54,0,0,1,.75,18.17h0A17.53,17.53,0,0,1,18.29.64h0A17.53,17.53,0,0,1,35.82,18.17h0A17.53,17.53,0,0,1,18.29,35.71Z"/><path class="cls-2" d="M27.9,17.69A9.44,9.44,0,0,0,9,17.52c0,.13,0,.27,0,.41a9.29,9.29,0,0,0,1.35,4.84l-1.7,5,5.23-1.67a9.45,9.45,0,0,0,14-8.2A1.93,1.93,0,0,0,27.9,17.69Zm-9.44,8.12a7.91,7.91,0,0,1-4.37-1.31l-3.05,1,1-2.92a7.81,7.81,0,0,1-1.51-4.62,6.51,6.51,0,0,1,0-.77,7.95,7.95,0,0,1,15.82.15c0,.21,0,.41,0,.62A7.92,7.92,0,0,1,18.46,25.81Z"/><path class="cls-2" d="M22.79,19.82c-.23-.12-1.37-.67-1.58-.75s-.37-.11-.52.12-.61.74-.74.89-.27.18-.5.06A6,6,0,0,1,17.59,19a6.59,6.59,0,0,1-1.29-1.59c-.13-.23,0-.35.1-.46s.23-.27.35-.41a.76.76,0,0,0,.08-.11,1.36,1.36,0,0,0,.15-.27.4.4,0,0,0,0-.4c-.06-.12-.52-1.25-.71-1.71s-.39-.38-.53-.38l-.44,0a.86.86,0,0,0-.62.28,2.59,2.59,0,0,0-.81,1.92,3,3,0,0,0,.12.79,5.33,5.33,0,0,0,.83,1.59,9.59,9.59,0,0,0,3.95,3.47c2.36.91,2.36.61,2.78.57a2.31,2.31,0,0,0,1.56-1.09,1.87,1.87,0,0,0,.14-1.1C23.17,20,23,19.93,22.79,19.82Z"/></svg>