<svg id="Capa_1" data-name="Capa 1" xmlns="http://www.w3.org/2000/svg" viewBox="0 0 35.07 35.07"><defs><style>.cls-1{fill:#595959;}.cls-2{fill:#fff;fill-rule:evenodd;}</style></defs><title>ss</title><rect class="cls-1" width="35.07" height="35.07" rx="17.54"/><path class="cls-2" d="M27.15,17.05a9.44,9.44,0,0,0-18.87-.17c0,.13,0,.27,0,.41a9.27,9.27,0,0,0,1.35,4.84l-1.7,5,5.23-1.67a9.45,9.45,0,0,0,14-8.2A1.93,1.93,0,0,0,27.15,17.05Zm-9.44,8.12a7.91,7.91,0,0,1-4.37-1.31l-3.05,1,1-2.93a7.81,7.81,0,0,1-1.51-4.62,6.62,6.62,0,0,1,0-.77,7.95,7.95,0,0,1,15.82.15c0,.21,0,.41,0,.62A7.92,7.92,0,0,1,17.71,25.17Z"/><path class="cls-2" d="M22,19.18c-.23-.11-1.37-.67-1.58-.75s-.37-.11-.53.12-.6.75-.73.9-.27.17-.5.05a6,6,0,0,1-1.86-1.14,6.6,6.6,0,0,1-1.29-1.58.34.34,0,0,1,.1-.47c.11-.11.23-.27.35-.41a.76.76,0,0,0,.08-.11,1.36,1.36,0,0,0,.15-.27.4.4,0,0,0,0-.4c-.06-.12-.52-1.25-.71-1.71S15.11,13,15,13l-.44,0a.88.88,0,0,0-.62.29,2.56,2.56,0,0,0-.81,1.91,3,3,0,0,0,.12.79,5.33,5.33,0,0,0,.83,1.59A9.52,9.52,0,0,0,18,21.06c2.36.92,2.36.61,2.78.57a2.31,2.31,0,0,0,1.56-1.09,1.84,1.84,0,0,0,.14-1.09C22.42,19.35,22.27,19.3,22,19.18Z"/></svg>