<svg id="Capa_1" data-name="Capa 1" xmlns="http://www.w3.org/2000/svg" viewBox="0 0 35.07 35.07"><defs><style>.cls-1{fill:#595959;}.cls-2{fill:#fff;}</style></defs><title>ss</title><path class="cls-1" d="M17.54,35.07h0A17.53,17.53,0,0,1,0,17.54H0A17.54,17.54,0,0,1,17.54,0h0A17.53,17.53,0,0,1,35.07,17.54h0A17.53,17.53,0,0,1,17.54,35.07Z"/><path class="cls-2" d="M17.54,6.36A11.18,11.18,0,1,0,28.72,17.54,11.17,11.17,0,0,0,17.54,6.36Zm0,1.94a9.21,9.21,0,0,1,5.63,1.93,11.41,11.41,0,0,1-4.65,3.43,44.74,44.74,0,0,0-3.25-5.07A9.41,9.41,0,0,1,17.54,8.3Zm-4.17,1a41.59,41.59,0,0,1,3.3,5,29.5,29.5,0,0,1-8.1,1A9.27,9.27,0,0,1,13.37,9.31ZM8.3,17.54c0-.08,0-.16,0-.24a31.54,31.54,0,0,0,9.27-1.23c.22.44.43.88.63,1.33a14.34,14.34,0,0,0-7.77,6A9.21,9.21,0,0,1,8.3,17.54Zm9.24,9.23a9.15,9.15,0,0,1-5.67-2A12.51,12.51,0,0,1,19,19.2a36.29,36.29,0,0,1,1.9,7A9.1,9.1,0,0,1,17.54,26.77Zm5.12-1.56a37.76,37.76,0,0,0-1.79-6.42,18.39,18.39,0,0,1,5.78.18A9.22,9.22,0,0,1,22.66,25.21ZM20.13,17c-.23-.53-.46-1-.72-1.57a13.09,13.09,0,0,0,5.17-3.8A9.21,9.21,0,0,1,26.75,17,19.69,19.69,0,0,0,20.13,17Z"/></svg>