<svg id="Capa_1" data-name="Capa 1" xmlns="http://www.w3.org/2000/svg" viewBox="0 0 36.57 36.57"><defs><style>.cls-1{fill:none;stroke:#595959;stroke-miterlimit:10;stroke-width:1.5px;}.cls-2{fill:#595959;}.cls-3{fill:#fff;}</style></defs><title>ss</title><path class="cls-1" d="M18.29,35.71h0A17.54,17.54,0,0,1,.75,18.17h0A17.53,17.53,0,0,1,18.29.64h0A17.53,17.53,0,0,1,35.82,18.17h0A17.53,17.53,0,0,1,18.29,35.71Z"/><path class="cls-2" d="M31.73,11.37a3.51,3.51,0,0,0-2.48-2.49c-2.19-.59-11-.59-11-.59s-8.78,0-11,.59a3.51,3.51,0,0,0-2.48,2.49,36.83,36.83,0,0,0-.59,6.8A36.77,36.77,0,0,0,4.84,25a3.5,3.5,0,0,0,2.48,2.5c2.19.59,11,.59,11,.59s8.77,0,11-.59A3.5,3.5,0,0,0,31.73,25a36.77,36.77,0,0,0,.59-6.8A36.83,36.83,0,0,0,31.73,11.37Z"/><polygon class="cls-3" points="15.42 22.35 15.42 14 22.75 18.18 15.42 22.35"/></svg>