<svg id="Capa_1" data-name="Capa 1" xmlns="http://www.w3.org/2000/svg" viewBox="0 0 35.07 35.07"><defs><style>.cls-1{fill:#595959;}.cls-2{fill:#fff;}</style></defs><title>ss</title><path class="cls-1" d="M17.54,35.07h0A17.53,17.53,0,0,1,0,17.54H0A17.54,17.54,0,0,1,17.54,0h0A17.53,17.53,0,0,1,35.07,17.54h0A17.53,17.53,0,0,1,17.54,35.07Z"/><path class="cls-2" d="M17.54,9.65c2.56,0,2.87,0,3.88.06a5.33,5.33,0,0,1,1.79.33A3.19,3.19,0,0,1,25,11.87a5.19,5.19,0,0,1,.33,1.78c.05,1,.06,1.32.06,3.89s0,2.87-.06,3.88A5.33,5.33,0,0,1,25,23.21,3.22,3.22,0,0,1,23.21,25a5.33,5.33,0,0,1-1.79.33c-1,.05-1.32.06-3.88.06s-2.88,0-3.89-.06A5.19,5.19,0,0,1,11.87,25,3.19,3.19,0,0,1,10,23.21a5.33,5.33,0,0,1-.33-1.79c-.05-1-.06-1.32-.06-3.88s0-2.88.06-3.89A5.19,5.19,0,0,1,10,11.87,3.17,3.17,0,0,1,11.87,10a5.19,5.19,0,0,1,1.78-.33c1-.05,1.32-.06,3.89-.06m0-1.73c-2.61,0-2.94,0-4,.06a7.06,7.06,0,0,0-2.33.45,4.94,4.94,0,0,0-2.81,2.81A7.06,7.06,0,0,0,8,13.57c-.05,1-.06,1.36-.06,4s0,2.94.06,4a7.06,7.06,0,0,0,.45,2.33,4.58,4.58,0,0,0,1.11,1.71,4.8,4.8,0,0,0,1.7,1.11,7.09,7.09,0,0,0,2.33.44c1,.05,1.36.06,4,.06s2.94,0,4-.06a7.09,7.09,0,0,0,2.33-.44,4.9,4.9,0,0,0,2.82-2.82,7.09,7.09,0,0,0,.44-2.33c.05-1,.06-1.35.06-4s0-2.94-.06-4a7.09,7.09,0,0,0-.44-2.33,4.8,4.8,0,0,0-1.11-1.7,4.58,4.58,0,0,0-1.71-1.11A7.06,7.06,0,0,0,21.5,8c-1-.05-1.35-.06-4-.06"/><path class="cls-2" d="M17.54,12.6a4.94,4.94,0,1,0,4.93,4.94,4.94,4.94,0,0,0-4.93-4.94m0,8.14a3.21,3.21,0,1,1,3.2-3.2,3.21,3.21,0,0,1-3.2,3.2"/><path class="cls-2" d="M23.82,12.4a1.15,1.15,0,1,1-1.15-1.15,1.15,1.15,0,0,1,1.15,1.15"/></svg>