<svg id="Capa_1" data-name="Capa 1" xmlns="http://www.w3.org/2000/svg" viewBox="0 0 35.07 35.07"><defs><style>.cls-1{fill:#1a8dc6;}.cls-2{fill:#fff;}</style></defs><title>ss</title><path class="cls-1" d="M17.67,35.09h0A17.53,17.53,0,0,1,.13,17.56h0A17.54,17.54,0,0,1,17.67,0h0A17.53,17.53,0,0,1,35.2,17.56h0A17.53,17.53,0,0,1,17.67,35.09Z"/><path class="cls-2" d="M8.32,23.43A10.91,10.91,0,0,0,25.1,13.75a7.69,7.69,0,0,0,1.91-2,7.47,7.47,0,0,1-2.2.6,3.78,3.78,0,0,0,1.68-2.12,7.61,7.61,0,0,1-2.43.93,3.84,3.84,0,0,0-6.53,3.5,10.89,10.89,0,0,1-7.91-4,3.83,3.83,0,0,0,1.19,5.11,3.8,3.8,0,0,1-1.74-.48,3.85,3.85,0,0,0,3.08,3.81,3.86,3.86,0,0,1-1.73.07A3.84,3.84,0,0,0,14,21.84,7.72,7.72,0,0,1,8.32,23.43Z"/></svg>