<svg id="Capa_1" data-name="Capa 1" xmlns="http://www.w3.org/2000/svg" viewBox="0 0 36.57 36.57"><defs><style>.cls-1{fill:none;stroke:#1a8dc6;stroke-miterlimit:10;stroke-width:1.5px;}.cls-2{fill:#1a8dc6;}</style></defs><title>ss</title><path class="cls-1" d="M18.29,35.93h0A17.54,17.54,0,0,1,.75,18.39h0A17.53,17.53,0,0,1,18.29.86h0A17.53,17.53,0,0,1,35.82,18.39h0A17.53,17.53,0,0,1,18.29,35.93Z"/><path class="cls-2" d="M8.94,24.26a10.9,10.9,0,0,0,16.78-9.68,7.65,7.65,0,0,0,1.91-2,7.79,7.79,0,0,1-2.2.6,3.78,3.78,0,0,0,1.68-2.12,7.61,7.61,0,0,1-2.43.93,3.84,3.84,0,0,0-6.53,3.5,10.9,10.9,0,0,1-7.91-4,3.84,3.84,0,0,0,1.19,5.12,3.8,3.8,0,0,1-1.74-.48A3.84,3.84,0,0,0,12.77,20,3.86,3.86,0,0,1,11,20a3.84,3.84,0,0,0,3.58,2.67A7.72,7.72,0,0,1,8.94,24.26Z"/></svg>