<svg id="Capa_1" data-name="Capa 1" xmlns="http://www.w3.org/2000/svg" viewBox="0 0 35.07 35.07"><defs><style>.cls-1{fill:#222221;}.cls-2{fill:#fff;}</style></defs><title>ss</title><path class="cls-1" d="M17.54,35.06h0A17.54,17.54,0,0,1,0,17.52H0A17.53,17.53,0,0,1,17.54,0h0A17.53,17.53,0,0,1,35.07,17.52h0A17.53,17.53,0,0,1,17.54,35.06Z"/><path class="cls-2" d="M17.54,6.34A11.18,11.18,0,1,0,28.72,17.52,11.18,11.18,0,0,0,17.54,6.34Zm0,1.95a9.15,9.15,0,0,1,5.63,1.93,11.41,11.41,0,0,1-4.65,3.43,43,43,0,0,0-3.25-5.07A9.41,9.41,0,0,1,17.54,8.29Zm-4.17,1a42.5,42.5,0,0,1,3.3,5,30.29,30.29,0,0,1-8.1,1A9.31,9.31,0,0,1,13.37,9.29ZM8.3,17.52c0-.08,0-.16,0-.23a31.19,31.19,0,0,0,9.27-1.24c.22.45.43.89.63,1.34a14.37,14.37,0,0,0-7.77,6A9.19,9.19,0,0,1,8.3,17.52Zm9.24,9.24a9.21,9.21,0,0,1-5.67-2A12.57,12.57,0,0,1,19,19.18a36.69,36.69,0,0,1,1.9,7A9.11,9.11,0,0,1,17.54,26.76Zm5.12-1.56a38.13,38.13,0,0,0-1.79-6.43,18.71,18.71,0,0,1,5.78.19A9.26,9.26,0,0,1,22.66,25.2Zm-2.53-8.27c-.23-.52-.46-1-.72-1.56a13.19,13.19,0,0,0,5.17-3.8A9.18,9.18,0,0,1,26.75,17,20.22,20.22,0,0,0,20.13,16.93Z"/></svg>