<svg id="Capa_1" data-name="Capa 1" xmlns="http://www.w3.org/2000/svg" viewBox="0 0 36.57 36.57"><defs><style>.cls-1{fill:none;stroke:#595959;stroke-miterlimit:10;stroke-width:1.5px;}.cls-2{fill:#595959;}</style></defs><title>ss</title><path class="cls-1" d="M18.29,35.71h0A17.54,17.54,0,0,1,.75,18.17h0A17.53,17.53,0,0,1,18.29.64h0A17.53,17.53,0,0,1,35.82,18.17h0A17.53,17.53,0,0,1,18.29,35.71Z"/><path class="cls-2" d="M18.29,10.29c2.56,0,2.87,0,3.88.06a5.33,5.33,0,0,1,1.79.33,2.81,2.81,0,0,1,1.1.72,2.88,2.88,0,0,1,.72,1.1,5.33,5.33,0,0,1,.33,1.79c.05,1,.06,1.32.06,3.88s0,2.88-.06,3.89a5.33,5.33,0,0,1-.33,1.79,3,3,0,0,1-.72,1.1,2.81,2.81,0,0,1-1.1.72,5.33,5.33,0,0,1-1.79.33c-1,.05-1.32.06-3.88.06s-2.88,0-3.89-.06a5.19,5.19,0,0,1-1.78-.33A2.92,2.92,0,0,1,11.51,25a3.09,3.09,0,0,1-.72-1.1,5.33,5.33,0,0,1-.33-1.79c-.05-1-.06-1.32-.06-3.89s0-2.87.06-3.88a5.33,5.33,0,0,1,.33-1.79,3,3,0,0,1,.72-1.1,2.92,2.92,0,0,1,1.11-.72,5.19,5.19,0,0,1,1.78-.33c1,0,1.32-.06,3.89-.06m0-1.73c-2.62,0-2.94,0-4,.06A7.09,7.09,0,0,0,12,9.06a4.93,4.93,0,0,0-1.71,1.11,4.68,4.68,0,0,0-1.1,1.71,7.06,7.06,0,0,0-.45,2.33c-.05,1-.06,1.35-.06,4s0,2.94.06,4a7.06,7.06,0,0,0,.45,2.33,4.68,4.68,0,0,0,1.1,1.71A4.93,4.93,0,0,0,12,27.29a7.09,7.09,0,0,0,2.33.44c1,.05,1.35.06,4,.06s2.94,0,4-.06a7.09,7.09,0,0,0,2.33-.44,4.9,4.9,0,0,0,2.82-2.82,7.09,7.09,0,0,0,.44-2.33c.05-1,.06-1.35.06-4s0-2.93-.06-4a7.09,7.09,0,0,0-.44-2.33,4.9,4.9,0,0,0-2.82-2.82,7.09,7.09,0,0,0-2.33-.44c-1,0-1.35-.06-4-.06"/><path class="cls-2" d="M18.29,13.24a4.94,4.94,0,1,0,4.93,4.93,4.94,4.94,0,0,0-4.93-4.93m0,8.14a3.21,3.21,0,1,1,3.2-3.21,3.21,3.21,0,0,1-3.2,3.21"/><path class="cls-2" d="M24.57,13a1.15,1.15,0,1,1-1.15-1.15A1.15,1.15,0,0,1,24.57,13"/></svg>