<svg id="Capa_1" data-name="Capa 1" xmlns="http://www.w3.org/2000/svg" viewBox="0 0 36.57 36.57"><defs><style>.cls-1{fill:none;stroke:#595959;stroke-miterlimit:10;stroke-width:1.5px;}.cls-2{fill:#595959;}</style></defs><title>ss</title><rect class="cls-1" x="0.75" y="0.64" width="35.07" height="35.07" rx="17.54"/><path class="cls-2" d="M18.29,7A11.18,11.18,0,1,0,29.47,18.18,11.17,11.17,0,0,0,18.29,7Zm0,1.94a9.21,9.21,0,0,1,5.63,1.93,11.41,11.41,0,0,1-4.65,3.43A43,43,0,0,0,16,9.23,9.41,9.41,0,0,1,18.29,8.94Zm-4.17,1a42.5,42.5,0,0,1,3.3,5,29.89,29.89,0,0,1-8.1,1A9.31,9.31,0,0,1,14.12,9.94ZM9.05,18.17c0-.08,0-.15,0-.23a31.19,31.19,0,0,0,9.27-1.24c.22.45.43.89.63,1.34a14.34,14.34,0,0,0-7.77,6A9.24,9.24,0,0,1,9.05,18.17Zm9.24,9.24a9.21,9.21,0,0,1-5.67-2,12.51,12.51,0,0,1,7.08-5.61,36.29,36.29,0,0,1,1.9,7A9.31,9.31,0,0,1,18.29,27.41Zm5.12-1.56a37.76,37.76,0,0,0-1.79-6.42,18.39,18.39,0,0,1,5.78.18A9.24,9.24,0,0,1,23.41,25.85Zm-2.53-8.26c-.23-.53-.46-1.05-.72-1.57a13.19,13.19,0,0,0,5.17-3.8,9.18,9.18,0,0,1,2.17,5.43A19.94,19.94,0,0,0,20.88,17.59Z"/></svg>