<svg id="Capa_1" data-name="Capa 1" xmlns="http://www.w3.org/2000/svg" viewBox="0 0 36.57 36.57"><defs><style>.cls-1{fill:none;stroke:#595959;stroke-miterlimit:10;stroke-width:1.5px;}.cls-2{fill:#595959;}</style></defs><title>ss</title><rect class="cls-1" x="1.01" y="0.64" width="35.07" height="35.07" rx="17.54"/><path class="cls-2" d="M20.73,17.72H13.65v2h4.77a4.67,4.67,0,0,1-4.64,4,5.56,5.56,0,1,1,3.77-9.63l1.57-1.35a7.62,7.62,0,1,0-5.34,13c4,0,7-3.08,7-7.29Z"/><polygon class="cls-2" points="30.92 17.8 27.99 17.8 27.99 14.88 26.13 14.88 26.13 17.8 23.2 17.8 23.2 19.67 26.13 19.67 26.13 22.59 27.99 22.59 27.99 19.67 30.92 19.67 30.92 17.8"/></svg>