<svg id="Capa_1" data-name="Capa 1" xmlns="http://www.w3.org/2000/svg" viewBox="0 0 36.57 36.57"><defs><style>.cls-1{fill:#1a8dc6;}</style></defs><title>ss</title><path class="cls-1" d="M18.29,8.13c3.2,0,3.57,0,4.84.07a6.36,6.36,0,0,1,2.22.41,3.75,3.75,0,0,1,1.38.9,3.64,3.64,0,0,1,.9,1.37A6.68,6.68,0,0,1,28,13.11c.06,1.26.07,1.64.07,4.84s0,3.58-.07,4.84A6.74,6.74,0,0,1,27.63,25a3.8,3.8,0,0,1-.9,1.37,3.75,3.75,0,0,1-1.38.9,6.61,6.61,0,0,1-2.22.41c-1.27.06-1.64.07-4.84.07s-3.58,0-4.84-.07a6.68,6.68,0,0,1-2.23-.41,3.75,3.75,0,0,1-1.38-.9A3.65,3.65,0,0,1,9,25a6.67,6.67,0,0,1-.42-2.23c0-1.26-.07-1.64-.07-4.84s0-3.58.07-4.84A6.61,6.61,0,0,1,9,10.88a3.5,3.5,0,0,1,.89-1.37,3.75,3.75,0,0,1,1.38-.9,6.43,6.43,0,0,1,2.23-.41c1.26-.06,1.64-.07,4.84-.07m0-2.16C15,6,14.62,6,13.35,6a8.71,8.71,0,0,0-2.91.56A5.67,5.67,0,0,0,8.32,8,5.82,5.82,0,0,0,6.93,10.1,9,9,0,0,0,6.38,13c-.06,1.28-.07,1.68-.07,4.94s0,3.66.07,4.94a9.11,9.11,0,0,0,.55,2.91,6,6,0,0,0,1.39,2.12,5.67,5.67,0,0,0,2.12,1.38,8.71,8.71,0,0,0,2.91.56c1.27.06,1.68.07,4.94.07s3.66,0,4.94-.07a8.7,8.7,0,0,0,2.9-.56,5.78,5.78,0,0,0,2.13-1.38,6.1,6.1,0,0,0,1.38-2.12,9.08,9.08,0,0,0,.56-2.91c.05-1.28.07-1.69.07-4.94s0-3.66-.07-4.94a9,9,0,0,0-.56-2.91A5.92,5.92,0,0,0,28.26,8,5.78,5.78,0,0,0,26.13,6.6,8.7,8.7,0,0,0,23.23,6C22,6,21.54,6,18.29,6"/><path class="cls-1" d="M18.29,11.8A6.15,6.15,0,1,0,24.44,18a6.15,6.15,0,0,0-6.15-6.15m0,10.14a4,4,0,1,1,4-4,4,4,0,0,1-4,4"/><path class="cls-1" d="M26.12,11.55a1.44,1.44,0,1,1-1.44-1.43,1.43,1.43,0,0,1,1.44,1.43"/></svg>