<svg id="Capa_1" data-name="Capa 1" xmlns="http://www.w3.org/2000/svg" viewBox="0 0 35.07 35.07"><defs><style>.cls-1{fill:#fff;fill-rule:evenodd;}</style></defs><title>ss</title><path class="cls-1" d="M30.27,16.67a11.77,11.77,0,0,0-23.52-.21c0,.17,0,.34,0,.51a11.62,11.62,0,0,0,1.68,6L6.3,29.27l6.52-2.07A11.79,11.79,0,0,0,30.27,17ZM18.5,26.79a9.78,9.78,0,0,1-5.44-1.63l-3.8,1.22,1.23-3.65A9.75,9.75,0,0,1,8.61,17c0-.32,0-.64.05-.95a9.9,9.9,0,0,1,19.71.19c0,.25,0,.5,0,.76A9.87,9.87,0,0,1,18.5,26.79Z"/><path class="cls-1" d="M23.9,19.33c-.29-.14-1.71-.84-2-.93s-.46-.14-.65.14-.75.93-.92,1.12-.34.22-.63.07a7.9,7.9,0,0,1-2.32-1.42,8.58,8.58,0,0,1-1.6-2c-.17-.28,0-.44.13-.58s.28-.34.43-.5a1.71,1.71,0,0,1,.11-.14c.06-.1.11-.2.18-.34a.52.52,0,0,0,0-.5c-.08-.15-.65-1.56-.9-2.13s-.48-.47-.65-.47-.35,0-.55,0a1.07,1.07,0,0,0-.77.36,3.21,3.21,0,0,0-1,2.39,3.51,3.51,0,0,0,.15,1,6.59,6.59,0,0,0,1,2,12,12,0,0,0,4.93,4.32c2.93,1.14,2.93.76,3.46.71a2.88,2.88,0,0,0,2-1.36,2.4,2.4,0,0,0,.17-1.36C24.38,19.55,24.18,19.47,23.9,19.33Z"/></svg>