<svg id="Capa_1" data-name="Capa 1" xmlns="http://www.w3.org/2000/svg" viewBox="0 0 35.07 35.07"><defs><style>.cls-1{fill:#fff;}</style></defs><title>ss</title><path class="cls-1" d="M5.89,24.6A13.6,13.6,0,0,0,26.8,12.53a9.64,9.64,0,0,0,2.38-2.47,9.43,9.43,0,0,1-2.74.75,4.84,4.84,0,0,0,2.1-2.64,9.73,9.73,0,0,1-3,1.16,4.78,4.78,0,0,0-8.14,4.36,13.55,13.55,0,0,1-9.84-5A4.78,4.78,0,0,0,9,15.07a4.66,4.66,0,0,1-2.16-.6,4.78,4.78,0,0,0,3.83,4.75,4.88,4.88,0,0,1-2.16.08A4.8,4.8,0,0,0,13,22.62,9.63,9.63,0,0,1,5.89,24.6Z"/></svg>