<svg id="Capa_1" data-name="Capa 1" xmlns="http://www.w3.org/2000/svg" viewBox="0 0 36.57 36.57"><defs><style>.cls-1{fill:none;stroke:#fff;stroke-miterlimit:10;stroke-width:1.5px;}.cls-2{fill:#fff;}</style></defs><title>ss</title><rect class="cls-1" x="0.75" y="0.76" width="35.07" height="35.07" rx="17.54"/><path class="cls-2" d="M18.29,7.12A11.18,11.18,0,1,0,29.47,18.3,11.17,11.17,0,0,0,18.29,7.12Zm0,1.94A9.21,9.21,0,0,1,23.92,11a11.33,11.33,0,0,1-4.65,3.43A43.76,43.76,0,0,0,16,9.36,8.94,8.94,0,0,1,18.29,9.06Zm-4.17,1a41.59,41.59,0,0,1,3.3,5,29.5,29.5,0,0,1-8.1,1A9.27,9.27,0,0,1,14.12,10.07ZM9.05,18.3c0-.08,0-.16,0-.24a31.21,31.21,0,0,0,9.27-1.23c.22.44.43.89.63,1.33a14.39,14.39,0,0,0-7.77,6A9.21,9.21,0,0,1,9.05,18.3Zm9.24,9.23a9.15,9.15,0,0,1-5.67-2A12.55,12.55,0,0,1,19.7,20a36.29,36.29,0,0,1,1.9,7A9.1,9.1,0,0,1,18.29,27.53ZM23.41,26a37.76,37.76,0,0,0-1.79-6.42,18.69,18.69,0,0,1,5.78.18A9.22,9.22,0,0,1,23.41,26Zm-2.53-8.26c-.23-.52-.46-1.05-.72-1.57a13.09,13.09,0,0,0,5.17-3.8,9.21,9.21,0,0,1,2.17,5.44A20,20,0,0,0,20.88,17.71Z"/></svg>