<svg id="Capa_1" data-name="Capa 1" xmlns="http://www.w3.org/2000/svg" viewBox="0 0 36.57 36.57"><defs><style>.cls-1{fill:none;stroke:#222221;stroke-miterlimit:10;stroke-width:1.5px;}.cls-2{fill:#222221;}</style></defs><title>ss</title><path class="cls-1" d="M18.67,35.93h0A17.54,17.54,0,0,1,1.13,18.39h0A17.53,17.53,0,0,1,18.67.86h0A17.54,17.54,0,0,1,36.21,18.39h0A17.54,17.54,0,0,1,18.67,35.93Z"/><path class="cls-2" d="M18.67,10.51c2.57,0,2.87,0,3.88.06a5.33,5.33,0,0,1,1.79.33,3.14,3.14,0,0,1,1.82,1.82,5.26,5.26,0,0,1,.34,1.79c0,1,.05,1.32.05,3.88s0,2.87-.05,3.89a5.18,5.18,0,0,1-.34,1.78,3.12,3.12,0,0,1-1.82,1.83,5.33,5.33,0,0,1-1.79.33c-1,.05-1.31.06-3.88.06s-2.87,0-3.89-.06A5.31,5.31,0,0,1,13,25.89a3,3,0,0,1-1.11-.72,3.18,3.18,0,0,1-.72-1.11,5.52,5.52,0,0,1-.33-1.78c0-1-.05-1.32-.05-3.89s0-2.87.05-3.88a5.6,5.6,0,0,1,.33-1.79,3,3,0,0,1,.72-1.1A2.92,2.92,0,0,1,13,10.9a5.31,5.31,0,0,1,1.78-.33c1-.05,1.32-.06,3.89-.06m0-1.73c-2.61,0-2.94,0-4,.06a6.84,6.84,0,0,0-2.33.44,4.8,4.8,0,0,0-1.7,1.11,4.63,4.63,0,0,0-1.11,1.7,7.18,7.18,0,0,0-.45,2.34c0,1-.06,1.35-.06,4s0,2.94.06,4a7.06,7.06,0,0,0,.45,2.33,4.94,4.94,0,0,0,2.81,2.81A7.06,7.06,0,0,0,14.7,28c1,.05,1.36.06,4,.06s2.94,0,4-.06A7.07,7.07,0,0,0,25,27.5a4.55,4.55,0,0,0,1.7-1.11,4.67,4.67,0,0,0,1.11-1.7,7.06,7.06,0,0,0,.45-2.33c0-1,.05-1.36.05-4s0-2.94-.05-4a7.18,7.18,0,0,0-.45-2.34,4.76,4.76,0,0,0-1.11-1.7A4.8,4.8,0,0,0,25,9.28a6.85,6.85,0,0,0-2.34-.44c-1-.05-1.35-.06-4-.06"/><path class="cls-2" d="M18.67,13.46a4.94,4.94,0,1,0,4.94,4.93,4.94,4.94,0,0,0-4.94-4.93m0,8.14a3.21,3.21,0,1,1,3.2-3.21,3.21,3.21,0,0,1-3.2,3.21"/><path class="cls-2" d="M25,13.26a1.16,1.16,0,1,1-1.16-1.15A1.15,1.15,0,0,1,25,13.26"/></svg>