<svg id="Capa_1" data-name="Capa 1" xmlns="http://www.w3.org/2000/svg" viewBox="0 0 36.57 36.57"><defs><style>.cls-1{fill:none;stroke:#1a8dc6;stroke-miterlimit:10;stroke-width:1.5px;}.cls-2{fill:#1a8dc6;}.cls-3{fill:#fff;}</style></defs><title>ss</title><path class="cls-1" d="M18.29,35.93h0A17.54,17.54,0,0,1,.75,18.39h0A17.53,17.53,0,0,1,18.29.86h0A17.53,17.53,0,0,1,35.82,18.39h0A17.53,17.53,0,0,1,18.29,35.93Z"/><path class="cls-2" d="M31.73,11.59A3.51,3.51,0,0,0,29.25,9.1c-2.19-.6-11-.6-11-.6s-8.78,0-11,.6a3.51,3.51,0,0,0-2.48,2.49,36.83,36.83,0,0,0-.59,6.8,36.77,36.77,0,0,0,.59,6.8,3.5,3.5,0,0,0,2.48,2.5c2.19.59,11,.59,11,.59s8.77,0,11-.59a3.5,3.5,0,0,0,2.48-2.5,36.77,36.77,0,0,0,.59-6.8A36.83,36.83,0,0,0,31.73,11.59Z"/><polygon class="cls-3" points="15.42 22.57 15.42 14.22 22.75 18.39 15.42 22.57"/></svg>