<svg id="Logo" xmlns="http://www.w3.org/2000/svg" viewBox="0 0 288.35 69.23"><defs><style>.cls-1,.cls-2{fill:#1c8dc6;}.cls-2{font-size:24.24px;font-family:Poppins-Bold, Poppins;font-weight:700;}</style></defs><title>ss</title><g id="Layer_2" data-name="Layer 2"><path class="cls-1" d="M35.27,1.44A33.41,33.41,0,1,0,68.68,34.85,33.41,33.41,0,0,0,35.27,1.44ZM13.14,30.78A4.89,4.89,0,1,1,18,25.89,4.89,4.89,0,0,1,13.14,30.78Zm9-10.19a9.47,9.47,0,0,1,7.12-3.68H49.64l-14.37,18H29.05a8.5,8.5,0,0,1-5.34-1.69,8.86,8.86,0,0,1-3.29-6.63A9.35,9.35,0,0,1,22.18,20.59ZM48.36,49.15a9.42,9.42,0,0,1-7.11,3.68H20.91l14.36-18h6.22a8.58,8.58,0,0,1,5.35,1.69,8.89,8.89,0,0,1,3.28,6.64A9.19,9.19,0,0,1,48.36,49.15Zm9-.41a4.89,4.89,0,1,1,4.89-4.89A4.89,4.89,0,0,1,57.41,48.74Z"/></g><text class="cls-2" transform="translate(71.49 40.15)">SmartSapp.com</text></svg>