<svg id="Logo" xmlns="http://www.w3.org/2000/svg" viewBox="0 0 68.77 69.23"><defs><style>.cls-1{fill:#595a5a;}</style></defs><title>ss</title><g id="Layer_2" data-name="Layer 2"><path class="cls-1" d="M34.51,1.16a33.41,33.41,0,1,0,33.4,33.41A33.41,33.41,0,0,0,34.51,1.16ZM12.37,30.5a4.89,4.89,0,1,1,4.89-4.88A4.88,4.88,0,0,1,12.37,30.5Zm9.05-10.19a9.45,9.45,0,0,1,7.11-3.68H48.87l-14.36,18H28.29a8.45,8.45,0,0,1-5.35-1.69,8.87,8.87,0,0,1-3.28-6.63A9.22,9.22,0,0,1,21.42,20.31ZM47.6,48.88a9.48,9.48,0,0,1-7.12,3.68H20.14l14.37-18h6.22a8.44,8.44,0,0,1,5.34,1.69,8.86,8.86,0,0,1,3.29,6.63A9.35,9.35,0,0,1,47.6,48.88Zm9-.42a4.89,4.89,0,1,1,4.89-4.89A4.89,4.89,0,0,1,56.64,48.46Z"/></g></svg>