<svg id="Logo" xmlns="http://www.w3.org/2000/svg" viewBox="0 0 68.77 69.23"><defs><style>.cls-1{fill:#fff;}</style></defs><title>ss</title><g id="Layer_2" data-name="Layer 2"><path class="cls-1" d="M34.53,1.67A33.41,33.41,0,1,0,67.94,35.08,33.41,33.41,0,0,0,34.53,1.67ZM12.39,31a4.89,4.89,0,1,1,4.89-4.88A4.88,4.88,0,0,1,12.39,31Zm9.05-10.19a9.45,9.45,0,0,1,7.11-3.68H48.89l-14.36,18H28.31A8.54,8.54,0,0,1,23,33.41a8.87,8.87,0,0,1-3.28-6.63A9.22,9.22,0,0,1,21.44,20.82ZM47.62,49.39a9.47,9.47,0,0,1-7.12,3.68H20.16l14.37-18h6.22a8.5,8.5,0,0,1,5.34,1.69,8.86,8.86,0,0,1,3.29,6.63A9.35,9.35,0,0,1,47.62,49.39Zm9-.42a4.89,4.89,0,1,1,4.89-4.88A4.88,4.88,0,0,1,56.66,49Z"/></g></svg>