<svg id="Logo" xmlns="http://www.w3.org/2000/svg" viewBox="0 0 288.35 69.23"><defs><style>.cls-1,.cls-2{fill:#595a5a;}.cls-2{font-size:24.24px;font-family:Poppins-Bold, Poppins;font-weight:700;}</style></defs><title>ss</title><g id="Layer_2" data-name="Layer 2"><path class="cls-1" d="M35.27.91A33.41,33.41,0,1,0,68.68,34.32,33.41,33.41,0,0,0,35.27.91ZM13.14,30.25A4.89,4.89,0,1,1,18,25.36,4.89,4.89,0,0,1,13.14,30.25Zm9-10.19a9.43,9.43,0,0,1,7.12-3.68H49.64l-14.37,18H29.05a8.5,8.5,0,0,1-5.34-1.69A8.87,8.87,0,0,1,20.42,26,9.33,9.33,0,0,1,22.18,20.06ZM48.36,48.62a9.45,9.45,0,0,1-7.11,3.68H20.91l14.36-18h6.22A8.51,8.51,0,0,1,46.84,36a8.89,8.89,0,0,1,3.28,6.63A9.21,9.21,0,0,1,48.36,48.62Zm9-.41a4.89,4.89,0,1,1,4.89-4.89A4.89,4.89,0,0,1,57.41,48.21Z"/></g><text class="cls-2" transform="translate(71.49 40.15)">SmartSapp.com</text></svg>