<svg id="Logo" xmlns="http://www.w3.org/2000/svg" viewBox="0 0 68.77 69.23"><title>ss</title><g id="Layer_2" data-name="Layer 2"><path d="M34.51.7a33.41,33.41,0,1,0,33.4,33.4A33.4,33.4,0,0,0,34.51.7ZM12.37,30a4.89,4.89,0,1,1,4.89-4.89A4.89,4.89,0,0,1,12.37,30Zm9.05-10.19a9.44,9.44,0,0,1,7.11-3.69H48.87l-14.36,18H28.29a8.54,8.54,0,0,1-5.35-1.7,8.87,8.87,0,0,1-3.28-6.63A9.18,9.18,0,0,1,21.42,19.85ZM47.6,48.41a9.48,9.48,0,0,1-7.12,3.68H20.14l14.37-18h6.22a8.5,8.5,0,0,1,5.34,1.69,8.86,8.86,0,0,1,3.29,6.63A9.35,9.35,0,0,1,47.6,48.41Zm9-.41a4.89,4.89,0,1,1,4.89-4.89A4.89,4.89,0,0,1,56.64,48Z"/></g></svg>