<svg id="Logo" xmlns="http://www.w3.org/2000/svg" viewBox="0 0 68.77 69.23"><defs><style>.cls-1{fill:#1c8dc6;}</style></defs><title>ss</title><g id="Layer_2" data-name="Layer 2"><path class="cls-1" d="M34.51,1.25a33.41,33.41,0,1,0,33.4,33.41A33.41,33.41,0,0,0,34.51,1.25ZM12.37,30.59a4.89,4.89,0,1,1,4.89-4.89A4.89,4.89,0,0,1,12.37,30.59ZM21.42,20.4a9.45,9.45,0,0,1,7.11-3.68H48.87l-14.36,18H28.29A8.51,8.51,0,0,1,22.94,33a8.89,8.89,0,0,1-3.28-6.63A9.21,9.21,0,0,1,21.42,20.4ZM47.6,49a9.45,9.45,0,0,1-7.12,3.68H20.14l14.37-18h6.22a8.5,8.5,0,0,1,5.34,1.69A8.87,8.87,0,0,1,49.36,43,9.33,9.33,0,0,1,47.6,49Zm9-.41a4.89,4.89,0,1,1,4.89-4.89A4.89,4.89,0,0,1,56.64,48.55Z"/></g></svg>