<svg id="Logo" xmlns="http://www.w3.org/2000/svg" viewBox="0 0 288.35 69.23"><defs><style>.cls-1,.cls-2{fill:#fff;}.cls-2{font-size:24.24px;font-family:Poppins-Bold, Poppins;font-weight:700;}</style></defs><title>ss</title><g id="Layer_2" data-name="Layer 2"><path class="cls-1" d="M36,1.67A33.41,33.41,0,1,0,69.45,35.08,33.41,33.41,0,0,0,36,1.67ZM13.9,31a4.89,4.89,0,1,1,4.89-4.88A4.88,4.88,0,0,1,13.9,31Zm9-10.19a9.45,9.45,0,0,1,7.11-3.68H50.4L36,35.11H29.82a8.54,8.54,0,0,1-5.35-1.7,8.87,8.87,0,0,1-3.28-6.63A9.28,9.28,0,0,1,23,20.82ZM49.13,49.39A9.47,9.47,0,0,1,42,53.07H21.68L36,35.11h6.22A8.49,8.49,0,0,1,47.6,36.8a8.86,8.86,0,0,1,3.29,6.63A9.35,9.35,0,0,1,49.13,49.39Zm9-.42a4.89,4.89,0,1,1,4.89-4.88A4.88,4.88,0,0,1,58.17,49Z"/></g><text class="cls-2" transform="translate(71.49 40.15)">SmartSapp.com</text></svg>